<svg width="32" height="32" viewBox="0 0 32 32" fill="none" xmlns="http://www.w3.org/2000/svg">
<path d="M8.22153 8.22183C12.5173 3.92606 19.4821 3.92606 23.7779 8.22183C28.0736 12.5176 28.0736 19.4824 23.7779 23.7782C19.4821 28.0739 12.5173 28.0739 8.22153 23.7782C3.92577 19.4824 3.92577 12.5176 8.22153 8.22183ZM9.63575 9.63604C8.13437 11.1374 7.2753 13.0374 7.0566 14.9953C12.2185 15.2421 16.7578 19.7589 17.0044 24.9417C18.9623 24.723 20.8623 23.8653 22.3637 22.364C23.8648 20.8628 24.7219 18.963 24.9407 17.0054C19.7586 16.7584 15.2416 12.2189 14.9943 7.05759C13.0367 7.27642 11.1369 8.13486 9.63575 9.63604ZM7.0566 16.9992C7.27431 18.959 8.13298 20.8612 9.63575 22.364C11.1387 23.8669 13.0412 24.7248 15.0012 24.9424C14.753 20.8612 11.1228 17.2478 7.0566 16.9992ZM16.9982 7.05759C17.2472 11.1232 20.8608 14.7536 24.9414 15.0022C24.7239 13.0419 23.8667 11.1391 22.3637 9.63604C20.8607 8.13311 18.9583 7.27518 16.9982 7.05759Z" fill="#DBAE71"/>
</svg>
