<svg width="32" height="32" viewBox="0 0 32 32" fill="none" xmlns="http://www.w3.org/2000/svg">
<path d="M15.6895 5.04022C15.9032 4.9776 16.1332 4.98817 16.3418 5.07147L28.3418 10.0715L27.5996 11.9289L25.9707 11.2492V23.0002H26.9707V25.0002H4.9707V23.0002H5.9707V11.2492L4.3418 11.9289L3.59961 10.0715L15.5996 5.07147L15.6895 5.04022ZM7.9707 23.0002H10.9707V21.0002H7.9707V23.0002ZM12.9707 23.0002H18.9707V13.0002H12.9707V23.0002ZM20.9707 23.0002H23.9707V21.0002H20.9707V23.0002ZM7.9707 19.0002H10.9707V13.0002H7.9707V19.0002ZM20.9707 19.0002H23.9707V13.0002H20.9707V19.0002ZM7.9707 10.4142V11.0002H23.9707V10.4142L15.9707 7.07733L7.9707 10.4142Z" fill="#DBAE71"/>
</svg>
