<svg width="32" height="32" viewBox="0 0 32 32" fill="none" xmlns="http://www.w3.org/2000/svg">
<path d="M27.6236 8.845C27.4366 8.584 27.1901 8.37125 26.9046 8.22432C26.6191 8.07739 26.3027 8.0005 25.9816 8H22.4376C22.9566 7.153 23.5376 5.108 21.9936 5C21.7284 5 21.4741 5.10536 21.2865 5.29289C21.099 5.48043 20.9936 5.73478 20.9936 6C20.9936 6.53043 20.7829 7.03914 20.4078 7.41421C20.0328 7.78929 19.5241 8 18.9936 8H13.9936C13.4632 8 12.9545 7.78929 12.5794 7.41421C12.2043 7.03914 11.9936 6.53043 11.9936 6C11.9936 5.73478 11.8883 5.48043 11.7007 5.29289C11.5132 5.10536 11.2588 5 10.9936 5C9.44563 5.109 10.0316 7.152 10.5496 8H7.00563C6.69023 8.00037 6.37936 8.07503 6.09819 8.21794C5.81703 8.36084 5.57348 8.56796 5.38728 8.82253C5.20108 9.0771 5.07746 9.37194 5.02645 9.68319C4.97543 9.99443 4.99844 10.3133 5.09363 10.614C5.63726 12.0869 6.66693 12.3303 8.01263 13.139C8.01263 13.174 11.0126 24.204 11.0126 24.204C11.0628 24.961 11.3985 25.6707 11.9518 26.1898C12.5052 26.7088 13.235 26.9984 13.9936 27H18.9936C19.7526 26.9978 20.4824 26.7074 21.0354 26.1876C21.5885 25.6678 21.9235 24.9574 21.9726 24.2C21.9726 24.2 24.9726 13.17 24.9726 13.135C26.3182 12.3279 27.3485 12.0863 27.8936 10.615C27.9944 10.32 28.0224 10.0051 27.9754 9.69693C27.9284 9.38879 27.8077 9.09654 27.6236 8.845ZM22.3736 11.962C21.6862 11.9253 20.9984 12.0279 20.3516 12.2637C19.7048 12.4996 19.1123 12.8637 18.6098 13.3343C18.1073 13.8048 17.7051 14.3721 17.4273 15.0021C17.1496 15.632 17.0021 16.3116 16.9936 17V21H15.9936V17C15.9852 16.3116 15.8376 15.632 15.5599 15.0021C15.2822 14.3721 14.88 13.8048 14.3775 13.3343C13.8749 12.8637 13.2825 12.4996 12.6357 12.2637C11.9889 12.0279 11.3011 11.9253 10.6136 11.962C11.3066 10.7945 12.2333 10.7826 13.3356 9.99L19.6356 10C20.7436 10.7871 21.6759 10.7957 22.3736 11.962ZM7.00563 10H10.3266C9.71151 10.6778 9.17479 10.4229 8.72663 11.221C7.94031 10.6731 7.33991 10.8982 7.00563 10ZM10.9936 14C11.3464 14.0029 11.6959 14.0686 12.0256 14.194C11.9768 14.4374 11.9888 14.6891 12.0607 14.9267C12.1326 15.1643 12.262 15.3805 12.4376 15.5561C12.6131 15.7316 12.8293 15.861 13.0669 15.9329C13.3045 16.0048 13.5562 16.0168 13.7996 15.968C13.925 16.2978 13.9907 16.6472 13.9936 17V21C13.4262 21.0015 12.871 21.1652 12.3936 21.472L10.2566 13.929C10.5004 13.9694 10.7466 13.9931 10.9936 14ZM18.9936 25H13.9936C13.7284 25 13.4741 24.8946 13.2865 24.7071C13.099 24.5196 12.9936 24.2652 12.9936 24C12.9936 23.7348 13.099 23.4804 13.2865 23.2929C13.4741 23.1054 13.7284 23 13.9936 23H18.9936C19.2588 23 19.5132 23.1054 19.7007 23.2929C19.8883 23.4804 19.9936 23.7348 19.9936 24C19.9936 24.2652 19.8883 24.5196 19.7007 24.7071C19.5132 24.8946 19.2588 25 18.9936 25ZM20.5936 21.472C20.1162 21.1652 19.5611 21.0015 18.9936 21V17C18.9966 16.6472 19.0623 16.2978 19.1876 15.968C19.431 16.0168 19.6827 16.0048 19.9203 15.9329C20.158 15.861 20.3741 15.7316 20.5497 15.5561C20.7252 15.3805 20.8547 15.1643 20.9265 14.9267C20.9984 14.6891 21.0105 14.4374 20.9616 14.194C21.5391 14.0379 22.1327 13.949 22.7306 13.929L20.5936 21.472ZM24.2576 11.215C23.8066 10.4091 23.2648 10.6575 22.6426 9.975L25.9936 9.97C25.6556 10.8768 25.0503 10.6597 24.2576 11.215Z" fill="#DBAE71"/>
</svg>
