<svg width="113" height="43" viewBox="0 0 113 43" fill="none" xmlns="http://www.w3.org/2000/svg"><path d="M15.346 24.755c.165 0 .346.017.56.034.082.377.082.706 0 1.067-.148.033-.296.067-.444.083-.23.017-.477 0-.707.016-.592.033-.675.099-.708.69a28 28 0 0 0-.048 1.66c.016 2.841.015 5.667.032 8.509.016.312.033.624.05.887.197.263.443.312.674.312.312.017.625 0 .954.032.23 0 .46.017.69.034-.164 1.495-.329 2.957-.493 4.419-.493.164-.494.164-1.135.016-.131-.361-.115-.756-.148-1.15-.05-.41-.083-.838-.115-1.248-.017-.28-.18-.427-.41-.526-.445-.18-.89-.312-1.366-.345-2.548-.165-5.097-.18-7.645.016-.543.05-1.086.23-1.612.362-.312.065-.493.28-.592.575-.213.64-.443 1.298-.657 1.938-.05.115-.099.247-.148.378-.378.148-.756.1-1.184.033 0-.114-.033-.23-.016-.312.28-1.1.443-2.218.575-3.335.033-.345.18-.575.394-.821A16 16 0 0 0 2.9 36.814c.806-1.117 1.233-2.382 1.398-3.73.263-1.987.329-3.975.247-5.979-.05-1.134-.067-1.133-1.168-1.166-.23 0-.46-.033-.69-.05-.1-.377-.083-.706-.017-1.084.18-.016.362-.05.543-.05 1.282.033 2.58.066 3.863.082q1.257.025 2.515 0c1.924-.032 3.832-.065 5.755-.082m40.382.017c.197.378.164.723.049 1.117-.214.033-.428.05-.625.066-.263.016-.526.033-.789.066-.164.017-.28.147-.312.312-.033.23-.05.477-.05.707l-.05 4.566a134 134 0 0 0 0 3.63c0 .23-.08.477.166.69.575-.69 1.052-1.445 1.561-2.168.51-.722 1.004-1.462 1.513-2.2.526-.773 1.053-1.53 1.563-2.285.51-.739 1.003-1.494 1.496-2.233s.986-1.48 1.512-2.251c.674-.05 1.365.033 2.038.016h1.99c.181.361.148.706.033 1.051-.329.164-.69.082-1.02.099-.723.033-.805.099-.854.805a15 15 0 0 0-.017.87v8.592c0 .329 0 .674.033 1.019.05.591.181.723.79.756.197.016.377.016.558.016.165 0 .313.016.493.032.165.362.132.707.034 1.118-.428.082-.839 0-1.25-.017-.427-.016-.839-.032-1.266-.032H62.14c-.427 0-.839.016-1.266.032-.411.017-.839.082-1.266.033a1.9 1.9 0 0 1 0-1.134c.263-.016.494-.015.724-.032.18 0 .361 0 .542-.033.361-.066.493-.197.543-.575q.049-.395.05-.788c.016-1.249.032-2.481.032-3.713v-4.42c0-.163-.033-.344-.05-.574-.279.148-.377.361-.509.542-1.216 1.774-2.417 3.564-3.634 5.339-.97 1.429-1.94 2.875-2.943 4.288-.707 1.002-.592.953-1.874 1.232-.345.066-.675.131-1.053.082 0-.28-.016-.526 0-.789.033-.969.115-1.938.115-2.907.017-2.727.017-5.47 0-8.197 0-.362-.032-.74-.082-1.102-.033-.262-.197-.41-.476-.427-.263-.016-.526-.017-.79-.033-.18 0-.361-.049-.526-.065-.164-.378-.115-.69-.05-1.019.116-.033.198-.082.264-.082zm-30.615-.13c.148 0 .313.015.493.031.115.23.23.461.328.707 1.562 3.647 3.141 7.277 4.703 10.924.148.362.329.723.477 1.084s.444.56.839.609c.197.016.41.048.607.048.115.378.1.724.017 1.134-.641.05-1.266-.065-1.89-.065-.626.016-1.267 0-1.891.016-.625.017-1.266.05-1.891.082-.214-.377-.131-.723-.082-1.117.526-.18 1.118.017 1.595-.279-.099-.624-.855-2.562-1.234-3.22-.592-.098-4.012-.115-5.163-.033-.394.624-.625 1.347-.904 2.037-.148.361-.329.707-.296 1.15.477.263 1.02.165 1.546.345.115.345.082.69.017 1.1-.872-.016-1.694-.065-2.533-.065-.805 0-1.628.05-2.45.082-.18-.36-.082-.723-.065-1.117.18-.033.328-.082.476-.065.658.066 1.02-.247 1.25-.838.165-.427.394-.805.575-1.216 1.595-3.663 3.19-7.31 4.785-10.973.049-.1.099-.182.165-.313.164-.016.345-.049.526-.049m23.05.13c.067 0 .15.033.264.05.148.345.115.69.016 1.067-.164.033-.329.05-.476.066-.23.016-.477 0-.707.016-.56.033-.642.115-.674.657a3 3 0 0 0-.017.395v9.692c0 .197.017.411.033.624.05.493.181.625.69.674.198.017.378.016.56.016.18.016.378.017.575.033.198.361.115.723.066 1.117-.132 0-.263.033-.378.033a44 44 0 0 0-5.673 0h-.395c-.147-.377-.098-.74-.048-1.133l.64-.05c.23-.017.477 0 .707-.032.494-.083.691-.247.724-.773.066-.838.082-1.676.099-2.513 0-.411-.017-.838-.017-1.364-.345.082-.575.132-.806.18-1.003.23-2.006.428-3.042.379-.69-.033-1.364-.148-2.006-.395a7 7 0 0 1-1.248-.673c-1.003-.69-1.513-1.659-1.595-2.858-.033-.69-.034-1.364-.05-2.054-.017-.443-.033-.887-.066-1.33-.049-.477-.148-.559-.641-.608-.197-.017-.411 0-.625-.017-.18 0-.345-.032-.542-.049-.148-.345-.1-.674-.05-1.051.131-.017.247-.066.378-.066h5.442c.1 0 .198.033.33.05.098.344.098.673.016 1.001-.296.214-.608.115-.92.132-.74.05-.823.099-.84.838 0 1.1.034 2.2.067 3.302.016.673.361 1.182.904 1.577.625.443 1.315.624 2.071.64 1.053.017 2.089-.197 3.124-.493.033-.164.082-.312.082-.46-.016-1.412-.015-2.842-.048-4.255-.033-1.116-.1-1.15-1.184-1.182l-.625-.05c-.214-.344-.164-.69-.082-1.05.115-.034.246-.083.361-.083zm-36.746 1.56c-.987-.213-4.34-.196-5.36.034-.016.23-.033.41-.033.59-.05 1.561-.083 3.106-.165 4.65-.099 2.02-.46 3.96-1.611 5.685-.05.082-.066.18-.099.311.132.033.23.082.33.082 2.186 0 4.356.017 6.543.017.132 0 .247-.05.411-.082.115-.51.132-1.003.132-1.495.017-2.662.017-5.306.017-7.967 0-.444-.034-.888-.067-1.331 0-.165-.065-.346-.098-.493m13.17 2.12c-.674 1.445-1.2 2.842-1.792 4.206-.05.115-.05.246-.083.378.575.131 3.009.147 3.765.015-.05-.558-.444-1.544-1.578-4.073-.066-.148-.164-.296-.312-.526m4.8-27.599c.428 0 .872-.082 1.332.033.083.329.066.64.017.986-.559.246-1.217-.016-1.76.263-.164.312-.164.624-.18.936-.033.427-.034.838-.034 1.265.017 2.678.017 5.356.017 8.034 0 .509.016 1.001.164 1.494.526.394 1.185.082 1.793.296.017.18.049.361.049.542 0 .148-.017.312-.033.51-.165.016-.312.065-.46.048a42 42 0 0 0-5.36 0c-.148.017-.296 0-.526 0v-1.1c.197-.033.361-.066.542-.082.23-.017.477 0 .707-.032.444-.066.592-.214.625-.658.033-.69.082-1.364.082-2.053.016-2.366.033-4.732.033-7.097a1 1 0 0 0-.033-.23c-.148-.099-.23 0-.312.115-.148.18-.28.378-.412.575a3649 3649 0 0 0-5.77 8.46c-.345.493-.708.986-1.053 1.478a1.76 1.76 0 0 1-.756.609c-.526.115-1.069.279-1.66.246a1.7 1.7 0 0 1-.066-.378c.033-1.971.115-3.943.132-5.914.016-1.972-.017-3.943-.034-5.914q0-.395-.05-.788c-.032-.296-.163-.412-.46-.445-.295-.049-.575-.049-.87-.065-.165-.017-.314-.05-.478-.066-.148-.345-.114-.673-.032-1.051.542-.082 1.052-.017 1.578-.017.493-.016 1.003 0 1.496 0h1.578c.477 0 .987-.065 1.497.017.082.361.065.657.016 1.018-.148.033-.296.082-.444.099-.394.033-.789.065-1.101.082-.263.197-.28.411-.296.625-.016.46-.033.936-.033 1.412v7.179c0 .197.017.394.033.591.197.082.279-.048.345-.147.46-.673.937-1.331 1.397-2.005 1.858-2.727 3.716-5.47 5.574-8.214l.444-.64c.46-.082.904-.017 1.348-.017zm29.119.132c1.627-.476 3.288-.526 4.932-.28 1.052.148 2.073.428 3.092.641.066.017.132.082.28.164-.428 1.085-.544 2.17-.56 3.27-.395.131-.74.082-1.102.049-.23-.575-.114-1.183-.23-1.807-.164-.099-.328-.23-.51-.33-1.577-.788-3.222-.918-4.898-.426-1.81.542-2.944 1.791-3.405 3.614a6.7 6.7 0 0 0 .099 3.729c.756 2.382 2.417 3.746 4.867 4.156 1.217.214 2.417.017 3.584-.311.362-.099.724-.296 1.07-.477.197-.115.394-.246.575-.361.295.016.444.197.543.41-.494 1.38-.297 1.15-1.481 1.627-2.302.92-4.653 1.035-7.02.263-2.253-.723-3.88-2.17-4.67-4.453-.575-1.642-.592-3.301-.033-4.944.806-2.382 2.5-3.828 4.867-4.534m30.55-.197c.065 0 .148.017.263.05.115.328.049.657.032 1.001-.542.197-1.134.017-1.643.247-.148.312-.165.624-.182.936-.033.46-.032.903-.032 1.347V11.3c0 .18.016.362.032.526.18.115.264.017.346-.098.164-.213.312-.428.46-.641 2.137-3.154 4.291-6.292 6.428-9.446.198-.28.396-.558.577-.821h4.06c.132.345.1.673.05 1.018-.576.247-1.2-.016-1.776.28-.033.147-.098.311-.115.492-.049.756-.1 1.512-.083 2.284a384 384 0 0 0 0 6.144c0 .739.05 1.462.083 2.2 0 .181.033.362.066.56.575.41 1.2.131 1.743.295.131.493.13.493.016 1.1-.674.05-1.348-.08-2.022-.065-.723 0-1.43-.016-2.138 0a89 89 0 0 0-2.055.082c-.181-.377-.099-.739-.066-1.133.263-.017.494-.033.724-.05.246-.016.477-.016.707-.066a.5.5 0 0 0 .427-.492c.033-.443.098-.887.098-1.33.017-2.662.034-5.307.034-7.969 0-.065-.033-.147-.05-.212-.213-.066-.28.114-.362.229-.575.854-1.15 1.693-1.726 2.547-1.315 1.938-2.63 3.86-3.945 5.799-.33.476-.725.92-.988 1.428-.641 1.183-1.71 1.446-2.959 1.462-.033-.147-.082-.295-.082-.443.017-.46.016-.903.049-1.347.18-3.203.066-6.407.082-9.61 0-.444-.033-.888-.082-1.331-.05-.624-.131-.69-.772-.74-.198-.016-.38.001-.56-.015-.164 0-.312-.033-.46-.05-.131-.443-.131-.444-.065-1.035.082-.016.18-.065.279-.065zm21.686.016c.394 0 .789-.032 1.217.115-.099.575-.214 1.134-.296 1.692s-.115 1.134-.181 1.758c-.214.016-.379.05-.559.05s-.362-.034-.576-.05c-.033-.591-.082-1.166-.115-1.692-1.118-.525-3.716-.64-5.048-.23a52 52 0 0 0-.098 4.222c0 .13.05.263.083.362.592.148 3.057.164 3.55.049.28-.066.395-.198.428-.494.033-.36.034-.723.05-1.117.378-.147.723-.098 1.117-.032.132.559.033 1.1.033 1.643.017.525 0 1.051 0 1.577v1.676c-.345.197-.707.098-1.101.065-.033-.18-.066-.345-.082-.525v-.395c-.033-.657-.115-.756-.773-.854-.97-.132-1.94-.099-2.91-.05-.099 0-.198.05-.395.116-.033 1.544-.017 3.039.016 4.533 0 .148.066.296.099.46.164.017.329.067.477.067 1.151 0 2.318.016 3.469 0 .329 0 .674-.1 1.003-.149.23-.05.378-.18.428-.41.098-.46.214-.92.312-1.38l.099-.394c.345-.214.69-.148 1.085-.066.115.64-.082 1.248-.082 1.889-.033.608-.049 1.216-.082 1.856-.263.05-.527.1-.774.132-.23.033-.477.049-.707.049-1.052 0-2.104 0-3.156-.032-1.891-.082-3.782-.115-5.673 0-.197.016-.411 0-.625 0-.181-.378-.131-.74-.049-1.134l.79-.05c.624-.05.756-.18.822-.821.033-.197.032-.41.032-.624 0-2.924.016-5.832 0-8.756 0-.526.017-1.052-.181-1.577-.476-.427-1.167-.099-1.726-.444V.886c.197-.033.362-.082.543-.082 3.173-.016 6.363-.016 9.536 0M8.457.706a8 8 0 0 1 2.5.246c.23.065.46.132.674.23 1.331.575 2.005 1.775 1.907 3.237a4.18 4.18 0 0 1-1.282 2.726c-.954.936-2.105 1.446-3.454 1.495-.657.033-1.315 0-2.005-.246-.1-.378-.198-.772-.296-1.134.148-.18.28-.115.394-.082.296.066.575.132.855.181a3.1 3.1 0 0 0 1.398-.082c.756-.214 1.282-.69 1.562-1.43a3.27 3.27 0 0 0 .065-2.168c-.247-.788-.822-1.265-1.611-1.478-.69-.197-1.398-.247-2.105-.099-.328.066-.69.033-.986.345 0 .197-.033.427-.033.657v9.545c0 .296.017.591.05.87.016.263.18.427.444.477.18.032.361.033.542.05.263.016.526.015.806.032.148.378.131.74.016 1.133-.542.066-1.068-.05-1.578-.05-.493 0-1.003-.015-1.496-.015-.526 0-1.053.016-1.58.032-.492.017-1.002.05-1.495.067-.247-.362-.165-.723-.099-1.117.197-.017.362-.05.543-.067.23-.016.477 0 .707-.015.378-.033.493-.133.559-.527.033-.23.065-.476.065-.723.017-3.17.017-6.357.017-9.528a4.3 4.3 0 0 0-.082-.788c-.05-.28-.214-.46-.527-.477l-.707-.048c-.18-.017-.361-.05-.542-.083a1.45 1.45 0 0 1 0-1.051 8 8 0 0 1 .625-.033C4.363.804 6.402.82 8.457.706M35.57.788c.066 0 .148.032.263.065.016.148.05.297.05.444 0 .23.066.41.213.575 1.365 1.593 2.746 3.187 4.11 4.78.083.1.199.18.346.296.05-.131.114-.213.115-.295 0-1.314-.016-2.63-.016-3.943 0-.066 0-.148-.017-.23-.032-.296-.132-.41-.444-.443-.263-.033-.526-.034-.789-.067-.164-.016-.345-.065-.526-.098-.115-.345-.098-.657-.032-1.002.114-.033.246-.082.36-.082h5.278c.099 0 .198.033.33.05.065.36.081.69-.017 1.018-.526.246-1.119.016-1.612.263-.246.772-.328 3.35-.164 4.73.148.099.247.017.346-.082.296-.312.575-.624.854-.936.97-1.15 1.94-2.3 2.91-3.433.395-.444.773-.871.674-1.545.658-.131 1.283-.016 1.908-.032.592-.017 1.2 0 1.793 0 .148.427.147.427.065 1.002-.18.18-.427.13-.657.13-.839 0-1.53.313-2.138.872-.296.279-.608.575-.888.886-.92 1.052-1.825 2.12-2.73 3.171-.081.099-.131.214-.23.345.132.164.231.313.346.444 1.776 1.89 3.568 3.779 5.36 5.667.41.428.822.822 1.545.707.083.427.1.755 0 1.133-.51.115-1.003-.065-1.512-.032-.494.033-.987.05-1.53.065-.542-.476-1.002-1.051-1.512-1.577-.493-.525-1.003-1.068-1.496-1.61a65 65 0 0 0-1.448-1.56c-.51-.526-.97-1.101-1.578-1.627-.066.132-.132.214-.132.296 0 1.347-.016 2.678.017 4.025.017.821.115.887.938.903.263 0 .526.017.789.033.016 0 .033.033.098.082.082.296.066.624 0 1.002-.115.017-.246.066-.361.05a39 39 0 0 0-5.196 0c-.115.016-.247-.017-.395-.033-.115-.361-.049-.69-.049-1.068.198-.016.346-.05.493-.066.23-.016.477 0 .708-.017.525-.032.641-.13.641-.672.016-1.413.016-2.842.016-4.255 0-.066-.066-.132-.082-.18a.3.3 0 0 0-.099-.018.13.13 0 0 0-.065.034c-.033.033-.083.066-.116.098-.049.05-.114.099-.164.164-1.841 1.988-3.7 3.959-5.54 5.947-.017.016-.05.016-.067.033h-2.927c-.148-.361-.148-.362-.082-1.035.05-.033.115-.099.18-.099.543.033.905-.246 1.234-.607 1.874-1.972 3.733-3.926 5.591-5.898.082-.098.147-.214.246-.329-.148-.18-.263-.344-.395-.509-.789-.92-1.561-1.856-2.367-2.76a17 17 0 0 0-1.217-1.232 2.92 2.92 0 0 0-1.94-.772c-.263-.017-.526.017-.789-.115-.033-.115-.065-.214-.065-.312v-.64c.147-.034.23-.1.328-.1zm46.152 0c.132.377.099.69.05 1.035-.297.164-.593.114-.872.13-.526.017-.97.182-1.365.527-.296.263-.609.509-.904.772a412 412 0 0 0-3.962 3.614c-.099.115-.198.23-.33.378.132.164.247.312.379.427 2.12 1.988 4.258 3.976 6.396 5.963.263.247.543.41.904.41.099 0 .213.034.328.05.099.362.05.69.05 1.068-.148.016-.28.066-.394.05-.806-.083-1.628-.115-2.434 0a.63.63 0 0 1-.575-.198c-.132-.131-.263-.246-.395-.378-1.858-1.741-3.7-3.499-5.557-5.257-.181-.18-.379-.345-.625-.558-.066.131-.131.214-.131.296l.049 4.566c0 .05.033.1.05.149.23.23.526.196.805.212.28.017.575-.048.855.083.115.345.115.674 0 1.051-.148.017-.297.066-.445.05a38 38 0 0 0-5.13 0h-.394c-.197-.361-.099-.723-.082-1.117.214-.017.379-.034.56-.05.262-.016.526-.016.788-.032.23-.017.395-.148.428-.395.033-.23.066-.476.066-.706.016-.985.016-1.955.016-2.924 0-2.202 0-4.42-.016-6.62 0-.428.016-.855-.181-1.265-.493-.296-1.085-.05-1.611-.247-.148-.345-.1-.674-.05-.97.098-.048.131-.097.18-.098 1.842 0 3.684-.016 5.525-.016.099 0 .198.033.329.05.131.328.132.656.033.968-.246.197-.51.165-.772.18-.214.017-.412.018-.625.05a.38.38 0 0 0-.313.312 1.6 1.6 0 0 0-.05.395 303 303 0 0 0-.032 3.86c0 .115.05.246.082.427.181-.131.313-.197.428-.295.493-.444.97-.904 1.43-1.364 1.02-1.019 2.022-2.07 3.025-3.105.592-.608.592-.608.724-1.396.033-.017.082-.066.132-.066.164-.016.312-.016.476-.016z" /></svg>
