<svg width="60" height="60" viewBox="0 0 60 60" fill="none" xmlns="http://www.w3.org/2000/svg">
<path fill-rule="evenodd" clip-rule="evenodd" d="M26.2511 57.0505L26.2474 57.0471C25.8117 56.6503 21.2342 52.4815 16.7383 46.6217C12.3383 40.8869 7.5 32.8816 7.5 24.9333C7.5 18.782 9.8234 12.8447 14.018 8.4368C18.2192 4.02194 23.9632 1.5 30 1.5C36.0368 1.5 41.7808 4.02194 45.982 8.4368C50.1766 12.8447 52.5 18.782 52.5 24.9333C52.5 32.8752 47.6989 40.8774 43.3102 46.6175C39.0559 52.1816 34.6591 56.2901 33.6804 57.1115C32.6773 57.9906 31.3769 58.5 30 58.5C28.5988 58.5 27.2767 57.9724 26.2666 57.0645L26.2511 57.0505Z" fill="white"/>
<path d="M30 4.5C24.8283 4.5 19.8684 6.64927 16.2114 10.475C12.5545 14.3007 10.5 19.4895 10.5 24.8999C10.5 38.6699 27.6844 54.2248 28.4156 54.8878C28.8571 55.2829 29.419 55.5 30 55.5C30.581 55.5 31.1429 55.2829 31.5844 54.8878C32.4375 54.2248 49.5 38.6699 49.5 24.8999C49.5 19.4895 47.4455 14.3007 43.7886 10.475C40.1316 6.64927 35.1717 4.5 30 4.5Z" fill="#4DA958"/>
<circle cx="30" cy="24" r="12" fill="white"/>
<circle cx="30" cy="24" r="6" fill="#2B8736"/>
</svg>
