<svg width="40" height="40" viewBox="0 0 40 40" fill="none" xmlns="http://www.w3.org/2000/svg">
<rect width="40" height="40" rx="20" fill="#CACAD4"/>
<path fill-rule="evenodd" clip-rule="evenodd" d="M8.95496 18.7976C14.658 16.3357 18.4547 14.6999 20.3611 13.9062C25.7872 11.6549 26.9278 11.2662 27.6611 11.25C27.824 11.25 28.1825 11.2824 28.4269 11.4768C28.6224 11.6387 28.6713 11.8493 28.7039 12.0112C28.7365 12.1732 28.7691 12.5133 28.7365 12.7725C28.4432 15.8498 27.1722 23.3165 26.5204 26.7501C26.2434 28.2078 25.7057 28.6937 25.1843 28.7423C24.0437 28.8395 23.1801 27.9973 22.0883 27.2846C20.3611 26.167 19.3997 25.4706 17.7214 24.3692C15.7824 23.1059 17.037 22.4094 18.1451 21.2757C18.4384 20.9841 23.4408 16.4491 23.5386 16.0442C23.5548 15.9956 23.5548 15.8012 23.4408 15.7041C23.3267 15.6069 23.1638 15.6393 23.0334 15.6717C22.8542 15.7041 20.1167 17.5181 14.7884 21.0975C14.0063 21.632 13.3056 21.8912 12.6701 21.875C11.9694 21.8588 10.6333 21.4862 9.62303 21.1623C8.40095 20.7736 7.42328 20.563 7.50475 19.8828C7.55363 19.5265 8.04247 19.1701 8.95496 18.7976Z" fill="white"/>
</svg>
