<svg width="72" height="72" viewBox="0 0 72 72" fill="none" xmlns="http://www.w3.org/2000/svg">
<path d="M36.0391 62.999H63V38.835L66.3184 40.2568L68.6826 34.7432L57 29.7373V22.5H51V27.166L39 22.0225V10.5986L43.209 8.74609L40.792 3.25293L3.29102 19.7529L5.70898 25.2461L9 23.7988L9 63L36 63C36.013 63 36.0261 62.9992 36.0391 62.999ZM15 21.1582L33 13.2383L33 56.999H30V57H15L15 21.1582ZM39 28.5498L57 36.2637V56.999H51V52.5H45V56.999H39L39 28.5498ZM27 30H21V36H27V30ZM51 39L45 39V45L51 45V39ZM27 42H21V48H27V42Z" fill="#C0EDB3"/>
</svg>
