<svg width="32" height="32" viewBox="0 0 32 32" fill="none" xmlns="http://www.w3.org/2000/svg">
<path d="M10.9717 23.7637C11.1117 24.3376 11.875 25 13 25C14.125 25 14.8883 24.3376 15.0283 23.7637H16.9717C17.1117 24.3376 17.875 25 19 25C20.125 25 20.8883 24.3376 21.0283 23.7637H22.9717C23.1117 24.3376 23.875 25 25 25H26V27H25C23.8892 27 22.7787 26.5874 22 25.8613C21.2213 26.5874 20.1108 27 19 27C17.8892 27 16.7787 26.5874 16 25.8613C15.2213 26.5874 14.1108 27 13 27C11.8892 27 10.7787 26.5874 10 25.8613C9.2213 26.5874 8.11081 27 7 27H6V25H7C8.12505 25 8.88827 24.3376 9.02832 23.7637H10.9717ZM17.2832 7.12109C20.6116 6.53044 24.6557 8.09215 25.7461 12.5146L26 13.543L19.8672 15.4189L21.6777 21.4531C23.0296 21.779 24.4438 22 26 22V24C22.8921 24 20.3127 23.2044 17.9785 22.4531C15.6119 21.6914 13.5558 21 11.2832 21C9.78803 21 8.63211 21.1783 7.8623 21.3516C7.4775 21.4382 7.18841 21.5238 7.00195 21.585C6.90898 21.6155 6.84112 21.6397 6.7998 21.6553C6.77925 21.663 6.76524 21.6689 6.75781 21.6719C6.75447 21.6732 6.75258 21.6745 6.75195 21.6748V21.6738H6.75391L6.75488 21.6729L6 19.8271H6.00098L6.00195 19.8262C6.00278 19.8258 6.00391 19.8256 6.00488 19.8252C6.00722 19.8242 6.01052 19.8226 6.01367 19.8213C6.02009 19.8186 6.02835 19.8154 6.03809 19.8115C6.05796 19.8035 6.0856 19.7929 6.11914 19.7803C6.18631 19.7549 6.28076 19.7202 6.40137 19.6807C6.64336 19.6013 6.99228 19.4993 7.44043 19.3984C8.33736 19.1967 9.63465 19 11.2832 19C13.9159 19 16.2749 19.8087 18.5684 20.5469C18.8436 20.6355 19.1195 20.7233 19.3955 20.8096L17.9541 16.0039L11.4297 18L11.2002 16.8281C10.7219 14.389 11.1264 12.2594 12.1445 10.5967C12.9392 9.29927 14.0805 8.33153 15.3779 7.72559L14.584 5.57422L16.5 5L17.2832 7.12109ZM23.5488 12.2012C22.4666 9.50023 19.6678 8.57367 17.2734 9.16504L17.0264 9.23145C15.7263 9.61992 14.581 10.4475 13.8496 11.6416L13.8486 11.6406C13.2475 12.6225 12.9059 13.8887 13.0225 15.4209L23.5488 12.2012Z" fill="#DBAE71"/>
</svg>
