<svg width="32" height="32" viewBox="0 0 32 32" fill="none" xmlns="http://www.w3.org/2000/svg">
<path d="M18.3916 5.91455L16.9688 6.57764V9.36768L20.9688 11.2134V10.0083H22.9688V12.1362L29.3877 15.1001L28.5498 16.9165L26.9688 16.186V27.0005H4.96875V12.1782L3.3916 12.9146L2.5459 11.1021L17.5459 4.10205L18.3916 5.91455ZM6.96875 11.2446V25.0005H14.9688V7.51123L6.96875 11.2446ZM16.9688 25.0005H20V22.0083H22V25.0005H24.9688V15.2632L16.9688 11.5708V25.0005ZM12.9688 20.0083H8.96875V18.0083H12.9688V20.0083ZM22.9688 20.0083H18.9688V18.0083H22.9688V20.0083ZM12.9688 16.0083H8.96875V14.0083H12.9688V16.0083Z" fill="#DBAE71"/>
</svg>
