<svg width="32" height="32" viewBox="0 0 32 32" fill="none" xmlns="http://www.w3.org/2000/svg">
<path d="M23 18H21.5449L20.4922 26.1289L18.5078 25.8711L18.6211 25H17V26H15V25H13.3789L13.4922 25.8711L11.5078 26.1289L10.4551 18H9V16H23V18ZM12.9258 21.5L13.1201 23H15V21.5H12.9258ZM17 21.5V23H18.8799L19.0742 21.5H17ZM26.1025 5.00488C26.6067 5.05621 27 5.48232 27 6V21C27 21.5523 26.5523 22 26 22H23V20H25V7H7V20H9V22H6C5.44772 22 5 21.5523 5 21V6L5.00488 5.89746C5.05621 5.39333 5.48232 5 6 5H26L26.1025 5.00488ZM12.666 19.5H15V18H12.4717L12.666 19.5ZM17 19.5H19.334L19.5283 18H17V19.5ZM20.1025 11.0049C20.6067 11.0562 21 11.4823 21 12V15H19V13H13V15H11V12L11.0049 11.9014C11.0276 11.6724 11.1288 11.4571 11.293 11.293C11.4805 11.1054 11.7348 11 12 11H20L20.1025 11.0049Z" fill="#DBAE71"/>
</svg>
