<svg width="32" height="32" viewBox="0 0 32 32" fill="none" xmlns="http://www.w3.org/2000/svg">
<path d="M21 12H25.3623L25.6406 12.2315L29.5625 15.5L25.6406 18.7686L25.3623 19H21V26H19V19H16C15.4477 19 15 18.5523 15 18V13L15.0049 12.8975C15.0562 12.3934 15.4823 12 16 12H19V11H21V12ZM12.3916 5.00003C12.7952 4.99812 13.1936 5.09304 13.5527 5.27737C13.9119 5.46175 14.2213 5.73042 14.4551 6.0596L17.3232 9.91311C17.3047 9.94164 17.2866 9.97053 17.2695 10H16C15.7033 10 15.4172 10.0448 15.1465 10.125L12.7969 7.18362C12.7504 7.11893 12.6885 7.06676 12.6172 7.03128C12.5459 6.99586 12.4673 6.97755 12.3877 6.97952C12.3081 6.98149 12.2296 7.00306 12.1602 7.04202C12.0909 7.08091 12.0324 7.13647 11.9893 7.20315L8.16504 11.9883H10.8564L12.2861 13.9883H10.0576L7.5 16.9883H12.4326L13 17.8116V18C13 18.3467 13.0618 18.6786 13.1699 18.9883H8.55957L6 21.9883H17V23.9883H13.4004V25.9883H11.4004V23.9883H2L6.13086 18.9883H3.31152L7.59961 13.9883H4.44434L10.3379 6.07913C10.5683 5.74787 10.8753 5.47691 11.2324 5.28909C11.5898 5.10124 11.9879 5.00199 12.3916 5.00003ZM17 17H24.6367L26.4365 15.5L24.6367 14H17V17Z" fill="#DBAE71"/>
</svg>
