<svg width="79" height="165" viewBox="0 0 79 165" fill="none" xmlns="http://www.w3.org/2000/svg">
<path d="M34.709 61.3416C37.3067 61.128 39.9209 61.1606 42.5186 61.2263C44.393 61.2756 46.2515 61.4393 48.1094 61.6365C50.0988 61.8336 52.0884 62.113 54.0449 62.4744C59.0761 63.3943 63.9759 64.7249 68.6289 66.8933C70.3552 67.6982 71.9993 68.6347 73.5283 69.7517C74.7122 70.6224 75.8138 71.6086 76.751 72.7585C77.7538 73.9905 78.5427 75.3702 78.8223 76.947C78.9867 77.8176 79.0038 78.7214 78.9873 79.6248C79.0366 80.7746 78.8057 81.8754 78.4112 82.9431C77.7042 84.8814 76.521 86.4589 74.7783 87.5759C74.0056 88.0688 73.1826 88.4957 72.377 88.9392C71.2919 89.5305 70.1907 90.0895 69.1221 90.7136C67.0504 91.8964 66.1127 93.786 65.9483 96.1023C65.9319 96.365 65.9652 96.6277 65.9981 96.8904C66.2283 98.7139 66.4422 100.538 66.7217 102.361C66.9025 103.56 67.1489 104.743 67.3955 105.926C67.8723 108.242 68.2501 110.575 68.4639 112.925C68.6776 115.175 68.7437 117.425 68.5957 119.692C68.5135 121.154 68.2997 122.616 67.8887 124.029C67.1817 126.477 65.8666 128.58 64.1074 130.403C61.9042 132.67 59.2893 134.313 56.2969 135.299C53.321 136.284 50.3285 137.187 47.3526 138.124C40.0031 140.424 32.8177 143.2 25.9121 146.617C21.9497 148.588 18.1193 150.774 14.5186 153.337C11.8879 155.226 9.40472 157.296 7.2344 159.711C5.93569 161.156 4.7846 162.716 3.83108 164.425C3.73243 164.605 3.69914 164.901 3.38674 164.885C3.51826 163.817 3.66636 162.766 3.79787 161.698C3.99516 160.121 4.17676 158.528 4.37405 156.934C4.55491 155.472 4.71858 154.01 4.89944 152.548C5.08029 150.971 5.27832 149.377 5.47561 147.784C5.65645 146.371 5.85384 144.975 5.98537 143.562C6.13334 142.002 6.47849 140.506 6.9717 139.028C9.14203 132.556 12.7589 127.101 18.1026 122.813C21.21 120.316 24.6959 118.51 28.461 117.228C34.2321 115.273 39.9869 113.285 45.6758 111.084C47.4843 110.377 49.2765 109.622 51.085 108.899C52.2029 108.456 53.3373 108.012 54.4717 107.601C56.4612 106.878 58.3031 105.893 59.9473 104.546C61.6736 103.116 62.9895 101.408 63.7129 99.2888C64.0581 98.2869 64.2552 97.2521 64.2881 96.2009C64.3374 94.7881 63.8444 93.5718 62.9072 92.5369C62.3154 91.8798 61.6244 91.371 60.8682 90.9275C59.7338 90.254 58.5169 89.7778 57.251 89.3835C55.2615 88.7593 53.2223 88.3816 51.167 88.1023C48.4706 87.7245 45.7744 87.6088 43.0615 87.5759C41.8777 87.5595 40.6938 87.6421 39.5264 87.8064C37.9811 88.0199 36.4521 88.2493 34.9561 88.6599C31.6677 89.547 28.6745 91.0755 25.9287 93.0632C23.068 95.1331 20.6184 97.5974 18.4317 100.357C15.7845 103.708 13.5814 107.339 11.8057 111.232C11.707 111.446 11.6083 111.659 11.4932 111.889C11.3123 111.758 11.3947 111.593 11.4112 111.462C11.5262 110.443 11.641 109.425 11.7725 108.407C11.9533 106.896 12.1512 105.384 12.3321 103.873C12.5293 102.329 12.7264 100.801 12.9072 99.2566C12.9895 98.5338 13.104 97.8103 13.1533 97.071C13.2848 95.1985 12.7265 93.5392 11.5264 92.1101C11.066 91.568 10.5231 91.1242 9.88186 90.7957C8.55008 90.1057 7.23415 89.3997 5.90237 88.7097C5.29414 88.3976 4.73505 88.0194 4.20901 87.5759C3.32125 86.8203 2.49927 85.9985 1.82522 85.0623C-0.229825 82.2203 -0.509124 79.1648 0.756858 75.9451C1.283 74.6146 2.10508 73.4649 3.05862 72.3972C3.97932 71.3952 5.01484 70.5078 6.13283 69.7029C8.41826 68.0601 10.9012 66.8277 13.499 65.7927C16.8367 64.4621 20.2734 63.5097 23.7754 62.7869C25.9621 62.3269 28.1652 61.9813 30.3848 61.7185C31.8316 61.5542 33.2621 61.4565 34.709 61.3416ZM38.5889 0.0163574C38.852 1.13343 38.9015 2.26745 39.0166 3.38452C39.1317 4.53429 39.2297 5.68433 39.3447 6.86694C39.7229 7.12978 40.1676 7.32637 40.4307 7.73706C40.6937 8.1477 40.7754 8.60794 40.7754 9.13354C40.9726 9.26492 41.1534 9.3967 41.3506 9.52808C47.3519 13.3064 53.3533 17.1015 59.3545 20.8962C59.6998 21.1262 60.0452 21.3727 60.374 21.6355C60.5712 21.7997 60.7525 21.9963 60.9004 22.2097C61.2456 22.7025 61.2293 23.2615 60.8184 23.7214C60.5718 23.9842 60.2919 24.2468 59.9795 24.4275C59.437 24.7396 58.8617 25.0193 58.3028 25.2986C57.9082 25.4957 57.497 25.6599 57.086 25.8406C56.7242 25.9884 56.4608 26.2189 56.2471 26.531C56.1322 26.6787 56.0499 26.8264 56.0498 27.0232V39.3611C56.2306 39.4432 56.3952 39.5413 56.5596 39.5906C57.6611 39.9027 58.7463 40.2148 59.7656 40.6912C60.4725 41.0196 61.1796 41.3976 61.8535 41.7917C62.3796 42.1038 62.824 42.5147 63.2022 42.991C63.7776 43.7301 64.0738 44.5354 63.8438 45.488C63.8109 45.685 63.794 45.8987 63.794 46.1121C63.7446 47.3277 63.1527 48.1824 62.084 48.741C61.9525 48.8067 61.8042 48.8724 61.6563 48.9216C59.2561 49.8581 58.5325 52.2567 59.3545 54.3757C59.5025 54.7536 59.7 55.0987 59.8809 55.4929C59.6508 55.575 59.4699 55.4768 59.2891 55.4275C57.7108 54.9511 56.0995 54.5565 54.4883 54.1951C52.3509 53.7187 50.2133 53.3571 48.043 53.0779C44.8204 52.6836 41.5975 52.4534 38.3584 52.5027C36.1553 52.5355 33.9522 52.7004 31.749 52.9304C27.7702 53.3411 23.8405 54.1127 19.9932 55.1804C19.5493 55.3118 19.1051 55.5089 18.5625 55.5417C18.694 55.2791 18.8096 55.0823 18.9082 54.8689C19.3522 53.9161 19.5653 52.93 19.3516 51.8787C19.0885 50.6794 18.4144 49.7923 17.3457 49.2009C17.0992 49.0695 16.8197 48.9712 16.5567 48.8562C15.6524 48.4619 15.0771 47.7879 14.7647 46.8679C14.6661 46.6052 14.584 46.326 14.4854 46.0632C14.0579 45.0611 14.1563 44.1085 14.7647 43.2214C15.0934 42.7287 15.5204 42.3505 15.9971 42.0056C16.7205 41.48 17.5102 41.0365 18.3487 40.7244C19.3845 40.3301 20.4369 40.0018 21.4727 39.6404C21.7192 39.5583 21.9822 39.492 22.2451 39.4099C22.278 39.2128 22.3115 39.032 22.3115 38.8513V27.3357C22.3115 26.5636 21.9989 26.0541 21.2754 25.7419C20.3054 25.3313 19.352 24.8876 18.3985 24.4441C18.234 24.3784 18.0687 24.2966 17.9043 24.198C16.8852 23.6065 16.7872 22.4567 17.6914 21.7175C17.8557 21.5862 18.0361 21.4711 18.2168 21.3562C24.1359 17.4464 30.0721 13.5527 36.0899 9.79077C36.287 9.67585 36.4843 9.54456 36.7471 9.36401C36.6484 8.31264 37.0436 7.53992 37.9151 6.9978C38.1452 4.66519 38.3587 2.33254 38.5889 0.0163574ZM49.5059 23.4587C49.473 23.6887 49.4405 23.9023 49.4405 24.0994V26.613C49.4405 30.1614 49.4403 33.6936 49.4238 37.2419C49.4402 37.5539 49.3744 37.8663 49.5059 38.1619C49.6045 38.2111 49.6706 38.2597 49.7363 38.2761C51.1175 38.4897 52.4822 38.7034 53.9619 38.9333C53.9784 38.5887 53.9951 38.3424 53.9951 38.0798V32.8064C53.9951 30.4244 53.9943 28.0253 54.0108 25.6433C54.0271 25.2001 53.8632 24.9704 53.4854 24.7898C52.3673 24.2805 51.1995 23.8526 50.0156 23.5076C49.8677 23.4748 49.7031 23.4752 49.5059 23.4587ZM28.6905 23.5408C27.7859 23.5409 25.2374 24.5099 24.3496 25.1833V38.6375C24.3496 38.7032 24.3989 38.7697 24.4483 38.9011C25.6156 38.7204 26.7672 38.5398 27.9346 38.3591C28.1153 38.3427 28.2959 38.309 28.4766 38.2761C28.5424 38.2597 28.6089 38.2108 28.7569 38.1287V23.8367C28.7569 23.7381 28.7069 23.6393 28.6905 23.5408ZM47.2696 22.9001C45.6086 22.4238 41.4659 22.046 40.3809 22.2595C40.3644 22.4237 40.3311 22.6043 40.3311 22.7849C40.2324 26.5469 40.2824 36.749 40.3975 37.6033C40.7262 37.6361 41.0057 37.6687 41.2852 37.6687C43.176 37.7016 45.0671 37.7841 46.9414 37.9812C47.0565 37.9975 47.1883 37.9478 47.3526 37.9314C47.369 37.6029 47.3848 37.3073 47.3848 37.0281V23.6394C47.3848 23.393 47.4504 23.1137 47.2696 22.9001ZM38.1612 22.1775C35.7113 22.1611 33.3107 22.4237 30.9102 22.9001C30.7622 23.6231 30.6965 31.7547 30.8115 37.2908C30.8115 37.4879 30.8449 37.6853 30.8613 37.866C30.9434 37.9152 30.9928 37.9646 31.042 37.9646C33.3438 37.751 35.6621 37.7018 37.9639 37.6033C38.0296 37.6033 38.112 37.5541 38.1778 37.5212C38.2928 37.2092 38.2432 36.8968 38.2432 36.5847V24.3787C38.2432 23.8038 38.2596 23.2289 38.2432 22.6541C38.2432 22.5062 38.194 22.3581 38.1612 22.1775Z" fill="white"/>
</svg>
