<svg width="48" height="48" viewBox="0 0 48 48" fill="none" xmlns="http://www.w3.org/2000/svg">
<path d="M24.0007 0.013916C20.0436 0.0143627 16.1755 1.18866 12.886 3.38819C9.59656 5.58772 7.03348 8.71364 5.52117 12.3704C4.00885 16.0271 3.61526 20.0502 4.39022 23.9307C5.16518 27.8112 7.07384 31.3746 9.87468 34.1699L24.0007 47.9859L38.1427 34.1539C40.939 31.3568 42.8432 27.7933 43.6144 23.9141C44.3857 20.0348 43.9895 16.014 42.4759 12.3599C40.9622 8.70582 38.3991 5.58258 35.1106 3.38505C31.8221 1.18752 27.9559 0.0143651 24.0007 0.013916ZM35.3307 31.3099L24.0007 42.3999L12.6867 31.3259C10.4498 29.0889 8.92627 26.239 8.30862 23.1364C7.69096 20.0338 8.00691 16.8177 9.21654 13.8946C10.4262 10.9715 12.4752 8.47257 15.1046 6.71365C17.734 4.95473 20.8259 4.01475 23.9894 4.01251C27.1529 4.01028 30.2461 4.94589 32.878 6.70109C35.5099 8.4563 37.5624 10.9523 38.7762 13.8737C39.9899 16.7951 40.3104 20.0107 39.6972 23.1142C39.0839 26.2177 37.5644 29.0698 35.3307 31.3099ZM32.0367 14.8459L27.0367 11.0259C26.164 10.3623 25.098 10.003 24.0017 10.003C22.9054 10.003 21.8393 10.3623 20.9667 11.0259L15.9667 14.8459C15.3572 15.3137 14.863 15.9149 14.5222 16.6035C14.1814 17.2921 14.003 18.0496 14.0007 18.8179V27.9999H34.0007V18.8179C33.9983 18.0498 33.8201 17.2925 33.4796 16.604C33.1392 15.9155 32.6456 15.3141 32.0367 14.8459ZM30.0007 23.9999H26.0007V19.9999H22.0007V23.9999H18.0007V18.8179C18.0007 18.6627 18.0368 18.5096 18.1063 18.3707C18.1757 18.2318 18.2765 18.1111 18.4007 18.0179L23.4007 14.1999C23.5752 14.0663 23.7889 13.9939 24.0087 13.9939C24.2285 13.9939 24.4422 14.0663 24.6167 14.1999L29.6167 18.0199C29.7409 18.1131 29.8417 18.2338 29.9111 18.3727C29.9805 18.5116 30.0167 18.6647 30.0167 18.8199L30.0007 23.9999Z" fill="#DBAE71"/>
</svg>
