<svg width="28" height="28" viewBox="0 0 28 28" fill="none" xmlns="http://www.w3.org/2000/svg">
<path d="M24 11.9998V7H17L10.0117 4.00098L4 7.08297V21L10.0117 19L14 20.712" stroke="#C08F4C" stroke-width="2" stroke-linejoin="round"/>
<path d="M10 4L10 19" stroke="#C08F4C" stroke-width="2" stroke-linejoin="round"/>
<path d="M17 7V12" stroke="#C08F4C" stroke-width="2" stroke-linejoin="round"/>
<path d="M20 14C17.7909 14 16 15.8089 16 18.0404C16 19.3163 16.5 20.3084 17.5 21.1945C18.2049 21.8192 19.4873 23.159 20 24C20.5386 23.1757 21.7951 21.8192 22.5 21.1945C23.5 20.3084 24 19.3163 24 18.0404C24 15.8089 22.2091 14 20 14Z" stroke="#C08F4C" stroke-width="2" stroke-linejoin="round"/>
<path d="M19.999 18H20.008" stroke="#C08F4C" stroke-width="2" stroke-linecap="round" stroke-linejoin="round"/>
</svg>
