<svg width="48" height="48" viewBox="0 0 48 48" fill="none" xmlns="http://www.w3.org/2000/svg">
<path d="M24.0186 41.999L42 41.999V25.8906L44.2119 26.8379L45.7881 23.1621L38 19.8252V15H34V18.1104L26 14.6816V7.06641L28.8057 5.83105L27.1943 2.16895L2.19434 13.1689L3.80566 16.8311L6 15.8662L6 42H24C24.0062 42 24.0124 41.9991 24.0186 41.999ZM10 14.1064L22 8.82617L22 37.999H20V38H10L10 14.1064ZM26 19.0332L38 24.1768V37.999L34 37.999V35H30V37.999H26L26 19.0332ZM18 20L14 20L14 24L18 24L18 20ZM34 26H30L30 30H34V26ZM18 28H14V32H18V28Z" fill="#C08F4C"/>
</svg>
