<svg width="48" height="48" viewBox="0 0 48 48" fill="none" xmlns="http://www.w3.org/2000/svg">
<path d="M33.5 24C38.7839 24 43 28.3584 43 33.6504C42.9998 37.5038 40.5822 40.3484 38.5449 42.0801C37.4955 42.972 36.4561 43.6487 35.6826 44.1016C35.2937 44.3293 34.9657 44.504 34.7305 44.624C34.6129 44.684 34.5178 44.7308 34.4492 44.7637C34.4149 44.7801 34.3869 44.7931 34.3662 44.8027C34.356 44.8075 34.3475 44.8114 34.3408 44.8145C34.3376 44.816 34.3345 44.8173 34.332 44.8184C34.3308 44.8189 34.3291 44.8199 34.3281 44.8203L34.3271 44.8213L33.5 43L34.3262 44.8213L33.5 45.1963L32.6738 44.8213L33.5 43L32.6729 44.8213L32.6719 44.8203C32.6709 44.8199 32.6692 44.8189 32.668 44.8184C32.6655 44.8173 32.6624 44.816 32.6592 44.8145C32.6525 44.8114 32.644 44.8075 32.6338 44.8027C32.6131 44.7931 32.5851 44.7801 32.5508 44.7637C32.4822 44.7308 32.3871 44.684 32.2695 44.624C32.0343 44.504 31.7063 44.3293 31.3174 44.1016C30.5439 43.6487 29.5045 42.972 28.4551 42.0801C26.4178 40.3484 24.0002 37.5038 24 33.6504C24 28.3584 28.2161 24 33.5 24ZM34.3301 41.1807L34.3291 41.1797H34.3281L34.3271 41.1787H34.3262C34.3283 41.1797 34.3298 41.1805 34.3301 41.1807ZM22 41H5V39L5.01074 24.0029L7 24H22V41ZM33.5 28C30.4996 28 28 30.4925 28 33.6504C28.0002 35.7465 29.3325 37.5766 31.0449 39.0322C31.8703 39.7338 32.7061 40.2789 33.3389 40.6494C33.394 40.6817 33.4485 40.7108 33.5 40.7402C33.5515 40.7108 33.606 40.6817 33.6611 40.6494C34.2939 40.2789 35.1297 39.7338 35.9551 39.0322C37.6675 37.5766 38.9998 35.7465 39 33.6504C39 30.4925 36.5004 28 33.5 28ZM9 37H18V28H9V37ZM33.5 31C34.8807 31 36 32.1193 36 33.5C36 34.8807 34.8807 36 33.5 36C32.1193 36 31 34.8807 31 33.5C31 32.1193 32.1193 31 33.5 31ZM22 21H5V19L5.01074 4.00293L7 4H22V21ZM42 4V21H25V19L25.0107 4.00293L27 4H42ZM9 17H18V8H9V17ZM29 8V17H38V8H29Z" fill="#C08F4C"/>
</svg>
