<svg width="48" height="48" viewBox="0 0 48 48" fill="none" xmlns="http://www.w3.org/2000/svg">
<path d="M14.0039 35C16.5455 38.7323 19.9608 41.247 24.0049 41.9707C25.7671 41.6545 27.3928 41.0057 28.874 40.0752L29.1777 39.8789C29.5862 39.608 29.9839 39.3144 30.3711 39H35.9473C34.6013 40.6482 33.0607 42.082 31.3311 43.2285L30.9463 43.4766C28.9502 44.7304 26.7242 45.5977 24.2988 45.9766L24 46.0234L23.7012 45.9766C17.3359 44.9823 12.483 40.6795 9.37695 35H14.0039ZM36 14C39.3137 14 42 16.6863 42 20V21H45V36H27V21H30V20C30 16.6863 32.6863 14 36 14ZM17 32H1V28H17V32ZM31 32H41V25H31V32ZM17 25H1V21H17V25ZM36 18C34.8954 18 34 18.8954 34 20V21H38V20C38 18.8954 37.1046 18 36 18ZM24 2C27.6698 2.00004 30.5154 3.62344 32.8867 4.94727C35.3571 6.32633 37.3451 7.40021 39.8379 7.40039H41.4014L41.7568 8.94531C42.046 10.2026 42.2706 11.4715 42.4326 12.7432L42.5068 13.3623C42.5239 13.5159 42.5394 13.6696 42.5547 13.8232C41.3839 12.6208 39.8918 11.7332 38.2168 11.2988C38.2163 11.2963 38.2163 11.2936 38.2158 11.291C38.192 11.2878 38.1683 11.2826 38.1445 11.2793C37.7771 11.1872 37.4008 11.1174 37.0176 11.0703C34.6733 10.5287 32.7071 9.41114 30.9893 8.45215C28.5243 7.07606 26.5201 6.00004 24 6C21.4928 6.00004 19.4921 7.07573 17.0225 8.45312C15.016 9.57222 12.6705 10.9088 9.78223 11.292C9.36943 13.5178 9.17802 15.7736 9.19043 18H5.24902C5.23395 14.9833 5.55728 11.9272 6.24316 8.94531L6.59863 7.40039H8.16113C10.6586 7.40038 12.6544 6.32579 15.126 4.94727C17.4971 3.62479 20.3419 2.00005 24 2Z" fill="#C08F4C"/>
</svg>
