<?xml version="1.0" encoding="utf-8"?><svg viewBox="0 0 502.66 502.66" xmlns="http://www.w3.org/2000/svg" xmlns:xlink="http://www.w3.org/1999/xlink"><style>:root>svg{display:none}:root>svg:target{display:block}</style><svg viewBox="0 0 25 19" id="arrow-right" xmlns="http://www.w3.org/2000/svg"><path d="M24.621 9.56 15 19l-2.121-2.121 6-5.819H.5v-3h18.379l-6-5.939L15 0l9.621 9.56Z"/></svg><svg viewBox="0 0 72 72" id="building" xmlns="http://www.w3.org/2000/svg"><path d="M36.04 62.999H63V38.835l3.318 1.422 2.365-5.514L57 29.737V22.5h-6v4.666l-12-5.143V10.599l4.209-1.853-2.417-5.493-37.501 16.5 2.418 5.493L9 23.8V63h27l.04-.001ZM15 21.159l18-7.92v43.76h-3V57H15V21.158Zm24 7.39 18 7.715v20.735h-6V52.5h-6v4.499h-6v-28.45ZM27 30h-6v6h6v-6Zm24 9h-6v6h6v-6Zm-24 3h-6v6h6v-6Z"/></svg><svg viewBox="0 0 12 10" id="check" xmlns="http://www.w3.org/2000/svg"><path d="M1 4.5 4.5 8 11 1"/></svg><svg viewBox="0 0 10 8" id="check-green" xmlns="http://www.w3.org/2000/svg"><path d="M1 4.083 3.813 7 9 1"/></svg><svg viewBox="0 0 16 16" id="cross" xmlns="http://www.w3.org/2000/svg"><path d="m15.975 1.441-6.56 6.56 6.559 6.559-1.414 1.414L8 9.415l-6.559 6.559L.028 14.56 6.587 8 .027 1.44 1.441.027l6.56 6.56 6.56-6.56 1.414 1.414Z"/></svg><svg viewBox="0 0 48 48" id="download" xmlns="http://www.w3.org/2000/svg"><path clip-rule="evenodd" d="M4 6.5A1.5 1.5 0 0 1 5.5 5h36A1.5 1.5 0 0 1 43 6.5v36a1.5 1.5 0 0 1-1.5 1.5h-36A1.5 1.5 0 0 1 4 42.5zM7 8v33h33V8z"/><path clip-rule="evenodd" d="M25.086 15v13.404l5.826-5.093L33 25.695 23.5 34 14 25.695l2.088-2.384 5.826 5.093V15z"/></svg><svg viewBox="0 0 28 28" id="email" xmlns="http://www.w3.org/2000/svg"><path d="M6 7h16v13H6V7Z"/><path d="m6 9 8 5 8-5"/></svg><svg viewBox="0 0 32 32" id="gplan-alcove" xmlns="http://www.w3.org/2000/svg"><path d="M15.69 5.04c.213-.062.443-.052.652.031l12 5-.742 1.858-1.63-.68V23h1v2h-22v-2h1V11.25l-1.628.679-.742-1.857 12-5 .09-.032ZM7.97 23h3v-2h-3v2Zm5 0h6V13h-6v10Zm8 0h3v-2h-3v2Zm-13-4h3v-6h-3v6Zm13 0h3v-6h-3v6Zm-13-8.586V11h16v-.586l-8-3.337-8 3.337Z"/></svg><svg viewBox="0 0 32 32" id="gplan-beach" xmlns="http://www.w3.org/2000/svg"><path d="M10.972 23.764c.14.574.903 1.236 2.028 1.236s1.888-.662 2.028-1.236h1.944c.14.574.903 1.236 2.028 1.236s1.888-.662 2.028-1.236h1.944c.14.574.903 1.236 2.028 1.236h1v2h-1c-1.11 0-2.221-.413-3-1.139-.779.726-1.89 1.139-3 1.139s-2.221-.413-3-1.139c-.779.726-1.89 1.139-3 1.139s-2.221-.413-3-1.139C9.221 26.587 8.11 27 7 27H6v-2h1c1.125 0 1.888-.662 2.028-1.236h1.944ZM17.283 7.12c3.329-.59 7.373.971 8.463 5.394L26 13.543l-6.133 1.876 1.81 6.034C23.03 21.78 24.445 22 26 22v2c-3.108 0-5.687-.796-8.021-1.547C15.611 21.691 13.556 21 11.283 21c-1.495 0-2.65.178-3.42.352a9.4 9.4 0 0 0-1.063.303l-.042.017-.006.003v-.001h.002v-.001L6 19.827h.001l.004-.002.009-.004.024-.01.081-.03c.067-.026.162-.06.282-.1.242-.08.591-.182 1.04-.283.896-.201 2.194-.398 3.842-.398 2.633 0 4.992.809 7.285 1.547l.827.263-1.44-4.806L11.43 18l-.23-1.172c-.478-2.439-.074-4.569.945-6.231a7.483 7.483 0 0 1 3.233-2.871l-.794-2.152L16.5 5l.783 2.121Zm6.266 5.08c-1.082-2.7-3.881-3.627-6.276-3.036l-.247.066c-1.3.389-2.445 1.216-3.176 2.41h-.001c-.601.982-.943 2.248-.826 3.78l10.526-3.22Z"/></svg><svg viewBox="0 0 32 32" id="gplan-club" xmlns="http://www.w3.org/2000/svg"><path d="m18.392 5.915-1.423.663v2.79l4 1.845v-1.205h2v2.128l6.419 2.964-.838 1.816-1.581-.73V27h-22V12.178l-1.577.737-.846-1.813 15-7 .846 1.813Zm-11.423 5.33V25h8V7.511l-8 3.734Zm10 13.755H20v-2.992h2V25h2.969v-9.737l-8-3.692V25Zm-4-4.992h-4v-2h4v2Zm10 0h-4v-2h4v2Zm-10-4h-4v-2h4v2Z"/></svg><svg viewBox="0 0 32 32" id="gplan-court" xmlns="http://www.w3.org/2000/svg"><path d="M8.222 8.222c4.295-4.296 11.26-4.296 15.556 0 4.296 4.296 4.296 11.26 0 15.556-4.296 4.296-11.26 4.296-15.556 0-4.296-4.296-4.296-11.26 0-15.556Zm1.414 1.414a8.961 8.961 0 0 0-2.58 5.36c5.163.246 9.702 4.763 9.948 9.946a8.96 8.96 0 0 0 5.36-2.578 8.959 8.959 0 0 0 2.577-5.359c-5.182-.247-9.7-4.786-9.947-9.947a8.96 8.96 0 0 0-5.358 2.578Zm-2.58 7.363a8.96 8.96 0 0 0 2.58 5.365A8.96 8.96 0 0 0 15 24.942c-.248-4.08-3.878-7.694-7.944-7.943Zm9.942-9.941c.25 4.065 3.863 7.696 7.943 7.944a8.959 8.959 0 0 0-2.577-5.366 8.96 8.96 0 0 0-5.366-2.578Z"/></svg><svg viewBox="0 0 32 32" id="gplan-farm" xmlns="http://www.w3.org/2000/svg"><path d="M27.624 8.845A2.024 2.024 0 0 0 25.982 8h-3.544c.519-.847 1.1-2.892-.444-3a1 1 0 0 0-1 1 2 2 0 0 1-2 2h-5a2 2 0 0 1-2-2 1 1 0 0 0-1-1c-1.548.109-.962 2.152-.444 3H7.006a2.008 2.008 0 0 0-1.912 2.614c.543 1.473 1.573 1.716 2.919 2.525 0 .035 3 11.065 3 11.065A2.995 2.995 0 0 0 13.993 27h5a2.994 2.994 0 0 0 2.98-2.8s3-11.03 3-11.065c1.345-.807 2.376-1.049 2.92-2.52a1.936 1.936 0 0 0-.27-1.77Zm-5.25 3.117A5.108 5.108 0 0 0 16.994 17v4h-1v-4a5.107 5.107 0 0 0-5.38-5.038c.693-1.168 1.62-1.18 2.722-1.972l6.3.01c1.108.787 2.04.796 2.738 1.962ZM7.006 10h3.32c-.614.678-1.151.423-1.6 1.221-.786-.548-1.386-.323-1.72-1.221Zm3.988 4c.352.003.702.069 1.032.194a1.507 1.507 0 0 0 1.774 1.774c.125.33.19.68.194 1.032v4a2.974 2.974 0 0 0-1.6.472l-2.137-7.543c.243.04.49.064.737.071Zm8 11h-5a1 1 0 0 1 0-2h5a1 1 0 0 1 0 2Zm1.6-3.528a2.974 2.974 0 0 0-1.6-.472v-4a2.96 2.96 0 0 1 .194-1.032 1.507 1.507 0 0 0 1.774-1.774 7.776 7.776 0 0 1 1.769-.265l-2.137 7.543Zm3.664-10.257c-.451-.806-.993-.557-1.615-1.24l3.35-.005c-.337.907-.943.69-1.735 1.245Z"/></svg><svg viewBox="0 0 32 32" id="gplan-playground" xmlns="http://www.w3.org/2000/svg"><path d="M25 25h2v2H6v-2h2V6h17v19Zm-15 0h13V8h-2v15h-9V8h-2v17Zm4-6v2h5v-2h-5Zm0-2h5V8h-5v9Z"/></svg><svg viewBox="0 0 32 32" id="gplan-sport" xmlns="http://www.w3.org/2000/svg"><path d="M23 18h-1.455l-1.053 8.129-1.984-.258.113-.871H17v1h-2v-1h-1.621l.113.871-1.984.258L10.455 18H9v-2h14v2Zm-10.074 3.5.194 1.5H15v-1.5h-2.074Zm4.074 0V23h1.88l.194-1.5H17Zm9.102-16.495A1 1 0 0 1 27 6v15a1 1 0 0 1-1 1h-3v-2h2V7H7v13h2v2H6a1 1 0 0 1-1-1V6l.005-.103A1 1 0 0 1 6 5h20l.102.005ZM12.666 19.5H15V18h-2.528l.194 1.5Zm4.334 0h2.334l.194-1.5H17v1.5Zm3.102-8.495A1 1 0 0 1 21 12v3h-2v-2h-6v2h-2v-3l.005-.099A1 1 0 0 1 12 11h8l.102.005Z"/></svg><svg viewBox="0 0 32 32" id="gplan-trail" xmlns="http://www.w3.org/2000/svg"><path d="M21 12h4.362l.279.232 3.922 3.268-3.922 3.269-.279.231H21v7h-2v-7h-3a1 1 0 0 1-1-1v-5l.005-.102A1 1 0 0 1 16 12h3v-1h2v1Zm-8.608-7a2.517 2.517 0 0 1 2.063 1.06l2.868 3.853a2.064 2.064 0 0 0-.053.087H16a3 3 0 0 0-.854.125l-2.35-2.941a.49.49 0 0 0-.807.02l-3.824 4.784h2.691l1.43 2h-2.228l-2.558 3h4.933l.567.824V18c0 .347.062.679.17.988H8.56l-2.56 3h11v2h-3.6v2h-2v-2H2l4.13-5H3.313l4.288-5H4.444l5.894-7.909A2.517 2.517 0 0 1 12.392 5ZM17 17h7.637l1.8-1.5-1.8-1.5H17v3Z"/></svg><svg viewBox="0 0 32 32" id="gplan1" xmlns="http://www.w3.org/2000/svg"><path d="M25 25h2v2H6v-2h2V6h17v19Zm-15 0h13V8h-2v15h-9V8h-2v17Zm4-6v2h5v-2h-5Zm0-2h5V8h-5v9Z"/></svg><svg viewBox="0 0 502.664 502.664" xml:space="preserve" id="icon" xmlns="http://www.w3.org/2000/svg"><path d="M153.821 358.226 0 274.337v-46.463l153.821-83.414v54.574L46.636 250.523l107.185 53.431v54.272zm26.273 29.358L282.103 115.08h32.227L212.084 387.584h-31.99zm168.749-29.358v-54.272l107.164-52.999-107.164-52.59v-53.927l153.821 83.522v46.183l-153.821 84.083z"/></svg><svg viewBox="0 0 79 165" id="logo" xmlns="http://www.w3.org/2000/svg"><path d="M34.709 61.342c2.598-.214 5.212-.181 7.81-.116 1.874.05 3.733.213 5.59.41a71.63 71.63 0 0 1 5.936.838c5.031.92 9.93 2.25 14.584 4.42 1.726.804 3.37 1.74 4.9 2.858 1.183.87 2.285 1.857 3.222 3.007 1.003 1.231 1.792 2.611 2.071 4.188.165.87.182 1.774.165 2.678.05 1.15-.181 2.25-.576 3.318-.707 1.938-1.89 3.516-3.633 4.633-.772.493-1.595.92-2.401 1.363-1.085.592-2.186 1.15-3.255 1.775-2.072 1.182-3.01 3.072-3.174 5.388-.016.263.017.526.05.788.23 1.824.444 3.648.724 5.471.18 1.199.427 2.382.674 3.565.476 2.316.854 4.649 1.068 6.999.214 2.25.28 4.5.132 6.767-.083 1.462-.296 2.924-.707 4.337-.707 2.448-2.022 4.551-3.782 6.374a19.108 19.108 0 0 1-7.81 4.896c-2.976.985-5.968 1.888-8.944 2.825-7.35 2.3-14.535 5.076-21.44 8.493-3.963 1.971-7.794 4.157-11.394 6.72-2.631 1.889-5.114 3.959-7.285 6.374-1.298 1.445-2.45 3.005-3.403 4.714-.099.18-.132.476-.444.46.131-1.068.28-2.119.41-3.187.198-1.577.38-3.17.577-4.764.18-1.462.345-2.924.525-4.386.181-1.577.38-3.171.577-4.764.18-1.413.378-2.809.51-4.222.147-1.56.492-3.056.986-4.534 2.17-6.472 5.787-11.927 11.13-16.215 3.108-2.497 6.594-4.303 10.359-5.585 5.771-1.955 11.526-3.943 17.215-6.144 1.808-.707 3.6-1.462 5.409-2.185 1.118-.443 2.252-.887 3.387-1.298 1.99-.723 3.831-1.708 5.475-3.055 1.727-1.43 3.042-3.138 3.766-5.257.345-1.002.542-2.037.575-3.088.05-1.413-.444-2.63-1.38-3.664-.593-.657-1.284-1.166-2.04-1.61-1.134-.673-2.351-1.15-3.617-1.544-1.99-.624-4.029-1.001-6.084-1.28-2.696-.378-5.393-.494-8.105-.527a23.097 23.097 0 0 0-3.536.23c-1.545.214-3.074.443-4.57.854-3.288.887-6.282 2.416-9.027 4.403-2.861 2.07-5.31 4.534-7.497 7.294a52.866 52.866 0 0 0-6.626 10.875c-.099.214-.198.427-.313.657-.18-.131-.098-.296-.082-.427.115-1.019.23-2.037.362-3.055.18-1.511.378-3.023.56-4.534.196-1.544.393-3.072.574-4.616.082-.723.197-1.447.246-2.186.132-1.873-.427-3.532-1.627-4.96a5.333 5.333 0 0 0-1.644-1.315c-1.332-.69-2.648-1.396-3.98-2.086a8.965 8.965 0 0 1-1.693-1.134c-.888-.756-1.71-1.577-2.384-2.514C-.23 82.22-.509 79.165.757 75.945c.526-1.33 1.348-2.48 2.302-3.548a20.069 20.069 0 0 1 3.074-2.694c2.285-1.643 4.768-2.875 7.366-3.91 3.338-1.33 6.774-2.283 10.276-3.006 2.187-.46 4.39-.806 6.61-1.069 1.447-.164 2.877-.262 4.324-.376ZM38.589.016c.263 1.117.313 2.251.428 3.369.115 1.15.213 2.3.328 3.482.378.263.823.46 1.086.87.263.41.344.87.344 1.397.198.13.378.263.576.394 6 3.778 12.002 7.574 18.004 11.368.345.23.69.477 1.019.74.197.164.378.36.526.574.346.492.33 1.052-.082 1.511-.246.263-.526.526-.838.706-.543.313-1.118.592-1.677.872-.395.197-.806.36-1.217.542a1.822 1.822 0 0 0-.839.69c-.115.148-.197.295-.197.492v12.338c.18.082.345.18.51.23 1.101.312 2.186.624 3.206 1.1.706.329 1.414.707 2.087 1.1.527.313.971.724 1.35 1.2.575.74.87 1.544.64 2.497-.032.197-.049.41-.049.624-.05 1.216-.641 2.07-1.71 2.629-.132.066-.28.131-.428.18-2.4.937-3.123 3.336-2.301 5.455.148.378.345.723.526 1.117-.23.082-.411-.016-.592-.066-1.578-.476-3.19-.87-4.8-1.232a71.382 71.382 0 0 0-6.446-1.117c-3.223-.394-6.446-.625-9.685-.575-2.203.032-4.406.197-6.609.427-3.979.411-7.909 1.183-11.756 2.25-.444.132-.888.329-1.43.362.131-.263.247-.46.345-.673.444-.953.657-1.939.444-2.99-.264-1.2-.938-2.087-2.006-2.678-.247-.132-.526-.23-.79-.345-.904-.394-1.479-1.068-1.791-1.988-.099-.263-.181-.542-.28-.805-.427-1.002-.329-1.955.28-2.842.328-.492.755-.87 1.232-1.215a9.901 9.901 0 0 1 2.352-1.282c1.035-.394 2.088-.722 3.124-1.084.246-.082.51-.148.772-.23.033-.197.066-.378.066-.559V27.336c0-.772-.312-1.282-1.036-1.594-.97-.41-1.923-.854-2.877-1.298a3.449 3.449 0 0 1-.494-.246c-1.019-.591-1.117-1.741-.213-2.48.165-.132.345-.247.526-.362 5.919-3.91 11.855-7.803 17.873-11.565.197-.115.394-.246.657-.427-.099-1.051.297-1.824 1.168-2.366.23-2.333.444-4.665.674-6.982ZM49.506 23.46c-.033.23-.066.443-.066.64v2.514c0 3.548 0 7.08-.016 10.629.016.312-.05.624.082.92.099.05.165.098.23.114l4.226.657c.016-.344.033-.59.033-.853v-5.274c0-2.382 0-4.78.016-7.163.016-.443-.148-.673-.526-.853a25.814 25.814 0 0 0-3.47-1.282c-.147-.033-.312-.033-.51-.05Zm-20.816.082c-.904 0-3.453.969-4.34 1.642v13.455c0 .065.049.132.098.263 1.168-.18 2.32-.361 3.487-.542.18-.016.36-.05.542-.083.065-.016.132-.065.28-.147V23.837c0-.099-.05-.198-.067-.296Zm18.58-.64c-1.661-.477-5.804-.855-6.89-.642-.016.165-.049.345-.049.526-.099 3.762-.049 13.964.066 14.818.33.033.609.066.888.066 1.891.033 3.782.115 5.656.312.115.017.247-.033.412-.05.016-.328.032-.624.032-.903V23.64c0-.246.065-.525-.115-.739Zm-9.109-.724c-2.45-.016-4.85.247-7.25.723-.149.723-.215 8.855-.1 14.39 0 .198.034.395.05.576.082.05.132.099.181.099 2.302-.214 4.62-.263 6.922-.362.066 0 .148-.049.214-.082.115-.312.065-.624.065-.936V24.379c0-.575.017-1.15 0-1.725 0-.148-.049-.296-.082-.477Z"/></svg><svg viewBox="0 0 113 43" id="logo_text" xmlns="http://www.w3.org/2000/svg"><path d="M15.346 24.755c.165 0 .346.017.56.034.082.377.082.706 0 1.067-.148.033-.296.067-.444.083-.23.017-.477 0-.707.016-.592.033-.675.099-.708.69a28 28 0 0 0-.048 1.66c.016 2.841.015 5.667.032 8.509.016.312.033.624.05.887.197.263.443.312.674.312.312.017.625 0 .954.032.23 0 .46.017.69.034-.164 1.495-.329 2.957-.493 4.419-.493.164-.494.164-1.135.016-.131-.361-.115-.756-.148-1.15-.05-.41-.083-.838-.115-1.248-.017-.28-.18-.427-.41-.526-.445-.18-.89-.312-1.366-.345-2.548-.165-5.097-.18-7.645.016-.543.05-1.086.23-1.612.362-.312.065-.493.28-.592.575-.213.64-.443 1.298-.657 1.938-.05.115-.099.247-.148.378-.378.148-.756.1-1.184.033 0-.114-.033-.23-.016-.312.28-1.1.443-2.218.575-3.335.033-.345.18-.575.394-.821A16 16 0 0 0 2.9 36.814c.806-1.117 1.233-2.382 1.398-3.73.263-1.987.329-3.975.247-5.979-.05-1.134-.067-1.133-1.168-1.166-.23 0-.46-.033-.69-.05-.1-.377-.083-.706-.017-1.084.18-.016.362-.05.543-.05 1.282.033 2.58.066 3.863.082q1.257.025 2.515 0c1.924-.032 3.832-.065 5.755-.082m40.382.017c.197.378.164.723.049 1.117-.214.033-.428.05-.625.066-.263.016-.526.033-.789.066-.164.017-.28.147-.312.312-.033.23-.05.477-.05.707l-.05 4.566a134 134 0 0 0 0 3.63c0 .23-.08.477.166.69.575-.69 1.052-1.445 1.561-2.168.51-.722 1.004-1.462 1.513-2.2.526-.773 1.053-1.53 1.563-2.285.51-.739 1.003-1.494 1.496-2.233s.986-1.48 1.512-2.251c.674-.05 1.365.033 2.038.016h1.99c.181.361.148.706.033 1.051-.329.164-.69.082-1.02.099-.723.033-.805.099-.854.805a15 15 0 0 0-.017.87v8.592c0 .329 0 .674.033 1.019.05.591.181.723.79.756.197.016.377.016.558.016.165 0 .313.016.493.032.165.362.132.707.034 1.118-.428.082-.839 0-1.25-.017-.427-.016-.839-.032-1.266-.032H62.14c-.427 0-.839.016-1.266.032-.411.017-.839.082-1.266.033a1.9 1.9 0 0 1 0-1.134c.263-.016.494-.015.724-.032.18 0 .361 0 .542-.033.361-.066.493-.197.543-.575q.049-.395.05-.788c.016-1.249.032-2.481.032-3.713v-4.42c0-.163-.033-.344-.05-.574-.279.148-.377.361-.509.542-1.216 1.774-2.417 3.564-3.634 5.339-.97 1.429-1.94 2.875-2.943 4.288-.707 1.002-.592.953-1.874 1.232-.345.066-.675.131-1.053.082 0-.28-.016-.526 0-.789.033-.969.115-1.938.115-2.907.017-2.727.017-5.47 0-8.197 0-.362-.032-.74-.082-1.102-.033-.262-.197-.41-.476-.427-.263-.016-.526-.017-.79-.033-.18 0-.361-.049-.526-.065-.164-.378-.115-.69-.05-1.019.116-.033.198-.082.264-.082zm-30.615-.13c.148 0 .313.015.493.031.115.23.23.461.328.707 1.562 3.647 3.141 7.277 4.703 10.924.148.362.329.723.477 1.084s.444.56.839.609c.197.016.41.048.607.048.115.378.1.724.017 1.134-.641.05-1.266-.065-1.89-.065-.626.016-1.267 0-1.891.016-.625.017-1.266.05-1.891.082-.214-.377-.131-.723-.082-1.117.526-.18 1.118.017 1.595-.279-.099-.624-.855-2.562-1.234-3.22-.592-.098-4.012-.115-5.163-.033-.394.624-.625 1.347-.904 2.037-.148.361-.329.707-.296 1.15.477.263 1.02.165 1.546.345.115.345.082.69.017 1.1-.872-.016-1.694-.065-2.533-.065-.805 0-1.628.05-2.45.082-.18-.36-.082-.723-.065-1.117.18-.033.328-.082.476-.065.658.066 1.02-.247 1.25-.838.165-.427.394-.805.575-1.216 1.595-3.663 3.19-7.31 4.785-10.973.049-.1.099-.182.165-.313.164-.016.345-.049.526-.049m23.05.13c.067 0 .15.033.264.05.148.345.115.69.016 1.067-.164.033-.329.05-.476.066-.23.016-.477 0-.707.016-.56.033-.642.115-.674.657a3 3 0 0 0-.017.395v9.692c0 .197.017.411.033.624.05.493.181.625.69.674.198.017.378.016.56.016.18.016.378.017.575.033.198.361.115.723.066 1.117-.132 0-.263.033-.378.033a44 44 0 0 0-5.673 0h-.395c-.147-.377-.098-.74-.048-1.133l.64-.05c.23-.017.477 0 .707-.032.494-.083.691-.247.724-.773.066-.838.082-1.676.099-2.513 0-.411-.017-.838-.017-1.364-.345.082-.575.132-.806.18-1.003.23-2.006.428-3.042.379-.69-.033-1.364-.148-2.006-.395a7 7 0 0 1-1.248-.673c-1.003-.69-1.513-1.659-1.595-2.858-.033-.69-.034-1.364-.05-2.054-.017-.443-.033-.887-.066-1.33-.049-.477-.148-.559-.641-.608-.197-.017-.411 0-.625-.017-.18 0-.345-.032-.542-.049-.148-.345-.1-.674-.05-1.051.131-.017.247-.066.378-.066h5.442c.1 0 .198.033.33.05.098.344.098.673.016 1.001-.296.214-.608.115-.92.132-.74.05-.823.099-.84.838 0 1.1.034 2.2.067 3.302.016.673.361 1.182.904 1.577.625.443 1.315.624 2.071.64 1.053.017 2.089-.197 3.124-.493.033-.164.082-.312.082-.46-.016-1.412-.015-2.842-.048-4.255-.033-1.116-.1-1.15-1.184-1.182l-.625-.05c-.214-.344-.164-.69-.082-1.05.115-.034.246-.083.361-.083zm-36.746 1.56c-.987-.213-4.34-.196-5.36.034-.016.23-.033.41-.033.59-.05 1.561-.083 3.106-.165 4.65-.099 2.02-.46 3.96-1.611 5.685-.05.082-.066.18-.099.311.132.033.23.082.33.082 2.186 0 4.356.017 6.543.017.132 0 .247-.05.411-.082.115-.51.132-1.003.132-1.495.017-2.662.017-5.306.017-7.967 0-.444-.034-.888-.067-1.331 0-.165-.065-.346-.098-.493m13.17 2.12c-.674 1.445-1.2 2.842-1.792 4.206-.05.115-.05.246-.083.378.575.131 3.009.147 3.765.015-.05-.558-.444-1.544-1.578-4.073-.066-.148-.164-.296-.312-.526m4.8-27.599c.428 0 .872-.082 1.332.033.083.329.066.64.017.986-.559.246-1.217-.016-1.76.263-.164.312-.164.624-.18.936-.033.427-.034.838-.034 1.265.017 2.678.017 5.356.017 8.034 0 .509.016 1.001.164 1.494.526.394 1.185.082 1.793.296.017.18.049.361.049.542 0 .148-.017.312-.033.51-.165.016-.312.065-.46.048a42 42 0 0 0-5.36 0c-.148.017-.296 0-.526 0v-1.1c.197-.033.361-.066.542-.082.23-.017.477 0 .707-.032.444-.066.592-.214.625-.658.033-.69.082-1.364.082-2.053.016-2.366.033-4.732.033-7.097a1 1 0 0 0-.033-.23c-.148-.099-.23 0-.312.115-.148.18-.28.378-.412.575a3649 3649 0 0 0-5.77 8.46c-.345.493-.708.986-1.053 1.478a1.76 1.76 0 0 1-.756.609c-.526.115-1.069.279-1.66.246a1.7 1.7 0 0 1-.066-.378c.033-1.971.115-3.943.132-5.914.016-1.972-.017-3.943-.034-5.914q0-.395-.05-.788c-.032-.296-.163-.412-.46-.445-.295-.049-.575-.049-.87-.065-.165-.017-.314-.05-.478-.066-.148-.345-.114-.673-.032-1.051.542-.082 1.052-.017 1.578-.017.493-.016 1.003 0 1.496 0h1.578c.477 0 .987-.065 1.497.017.082.361.065.657.016 1.018-.148.033-.296.082-.444.099-.394.033-.789.065-1.101.082-.263.197-.28.411-.296.625-.016.46-.033.936-.033 1.412v7.179c0 .197.017.394.033.591.197.082.279-.048.345-.147.46-.673.937-1.331 1.397-2.005 1.858-2.727 3.716-5.47 5.574-8.214l.444-.64c.46-.082.904-.017 1.348-.017zm29.119.132c1.627-.476 3.288-.526 4.932-.28 1.052.148 2.073.428 3.092.641.066.017.132.082.28.164-.428 1.085-.544 2.17-.56 3.27-.395.131-.74.082-1.102.049-.23-.575-.114-1.183-.23-1.807-.164-.099-.328-.23-.51-.33-1.577-.788-3.222-.918-4.898-.426-1.81.542-2.944 1.791-3.405 3.614a6.7 6.7 0 0 0 .099 3.729c.756 2.382 2.417 3.746 4.867 4.156 1.217.214 2.417.017 3.584-.311.362-.099.724-.296 1.07-.477.197-.115.394-.246.575-.361.295.016.444.197.543.41-.494 1.38-.297 1.15-1.481 1.627-2.302.92-4.653 1.035-7.02.263-2.253-.723-3.88-2.17-4.67-4.453-.575-1.642-.592-3.301-.033-4.944.806-2.382 2.5-3.828 4.867-4.534m30.55-.197c.065 0 .148.017.263.05.115.328.049.657.032 1.001-.542.197-1.134.017-1.643.247-.148.312-.165.624-.182.936-.033.46-.032.903-.032 1.347V11.3c0 .18.016.362.032.526.18.115.264.017.346-.098.164-.213.312-.428.46-.641 2.137-3.154 4.291-6.292 6.428-9.446.198-.28.396-.558.577-.821h4.06c.132.345.1.673.05 1.018-.576.247-1.2-.016-1.776.28-.033.147-.098.311-.115.492-.049.756-.1 1.512-.083 2.284a384 384 0 0 0 0 6.144c0 .739.05 1.462.083 2.2 0 .181.033.362.066.56.575.41 1.2.131 1.743.295.131.493.13.493.016 1.1-.674.05-1.348-.08-2.022-.065-.723 0-1.43-.016-2.138 0a89 89 0 0 0-2.055.082c-.181-.377-.099-.739-.066-1.133.263-.017.494-.033.724-.05.246-.016.477-.016.707-.066a.5.5 0 0 0 .427-.492c.033-.443.098-.887.098-1.33.017-2.662.034-5.307.034-7.969 0-.065-.033-.147-.05-.212-.213-.066-.28.114-.362.229-.575.854-1.15 1.693-1.726 2.547-1.315 1.938-2.63 3.86-3.945 5.799-.33.476-.725.92-.988 1.428-.641 1.183-1.71 1.446-2.959 1.462-.033-.147-.082-.295-.082-.443.017-.46.016-.903.049-1.347.18-3.203.066-6.407.082-9.61 0-.444-.033-.888-.082-1.331-.05-.624-.131-.69-.772-.74-.198-.016-.38.001-.56-.015-.164 0-.312-.033-.46-.05-.131-.443-.131-.444-.065-1.035.082-.016.18-.065.279-.065zm21.686.016c.394 0 .789-.032 1.217.115-.099.575-.214 1.134-.296 1.692s-.115 1.134-.181 1.758c-.214.016-.379.05-.559.05s-.362-.034-.576-.05c-.033-.591-.082-1.166-.115-1.692-1.118-.525-3.716-.64-5.048-.23a52 52 0 0 0-.098 4.222c0 .13.05.263.083.362.592.148 3.057.164 3.55.049.28-.066.395-.198.428-.494.033-.36.034-.723.05-1.117.378-.147.723-.098 1.117-.032.132.559.033 1.1.033 1.643.017.525 0 1.051 0 1.577v1.676c-.345.197-.707.098-1.101.065-.033-.18-.066-.345-.082-.525v-.395c-.033-.657-.115-.756-.773-.854-.97-.132-1.94-.099-2.91-.05-.099 0-.198.05-.395.116-.033 1.544-.017 3.039.016 4.533 0 .148.066.296.099.46.164.017.329.067.477.067 1.151 0 2.318.016 3.469 0 .329 0 .674-.1 1.003-.149.23-.05.378-.18.428-.41.098-.46.214-.92.312-1.38l.099-.394c.345-.214.69-.148 1.085-.066.115.64-.082 1.248-.082 1.889-.033.608-.049 1.216-.082 1.856-.263.05-.527.1-.774.132-.23.033-.477.049-.707.049-1.052 0-2.104 0-3.156-.032-1.891-.082-3.782-.115-5.673 0-.197.016-.411 0-.625 0-.181-.378-.131-.74-.049-1.134l.79-.05c.624-.05.756-.18.822-.821.033-.197.032-.41.032-.624 0-2.924.016-5.832 0-8.756 0-.526.017-1.052-.181-1.577-.476-.427-1.167-.099-1.726-.444V.886c.197-.033.362-.082.543-.082 3.173-.016 6.363-.016 9.536 0M8.457.706a8 8 0 0 1 2.5.246c.23.065.46.132.674.23 1.331.575 2.005 1.775 1.907 3.237a4.18 4.18 0 0 1-1.282 2.726c-.954.936-2.105 1.446-3.454 1.495-.657.033-1.315 0-2.005-.246-.1-.378-.198-.772-.296-1.134.148-.18.28-.115.394-.082.296.066.575.132.855.181a3.1 3.1 0 0 0 1.398-.082c.756-.214 1.282-.69 1.562-1.43a3.27 3.27 0 0 0 .065-2.168c-.247-.788-.822-1.265-1.611-1.478-.69-.197-1.398-.247-2.105-.099-.328.066-.69.033-.986.345 0 .197-.033.427-.033.657v9.545c0 .296.017.591.05.87.016.263.18.427.444.477.18.032.361.033.542.05.263.016.526.015.806.032.148.378.131.74.016 1.133-.542.066-1.068-.05-1.578-.05-.493 0-1.003-.015-1.496-.015-.526 0-1.053.016-1.58.032-.492.017-1.002.05-1.495.067-.247-.362-.165-.723-.099-1.117.197-.017.362-.05.543-.067.23-.016.477 0 .707-.015.378-.033.493-.133.559-.527.033-.23.065-.476.065-.723.017-3.17.017-6.357.017-9.528a4.3 4.3 0 0 0-.082-.788c-.05-.28-.214-.46-.527-.477l-.707-.048c-.18-.017-.361-.05-.542-.083a1.45 1.45 0 0 1 0-1.051 8 8 0 0 1 .625-.033C4.363.804 6.402.82 8.457.706M35.57.788c.066 0 .148.032.263.065.016.148.05.297.05.444 0 .23.066.41.213.575 1.365 1.593 2.746 3.187 4.11 4.78.083.1.199.18.346.296.05-.131.114-.213.115-.295 0-1.314-.016-2.63-.016-3.943 0-.066 0-.148-.017-.23-.032-.296-.132-.41-.444-.443-.263-.033-.526-.034-.789-.067-.164-.016-.345-.065-.526-.098-.115-.345-.098-.657-.032-1.002.114-.033.246-.082.36-.082h5.278c.099 0 .198.033.33.05.065.36.081.69-.017 1.018-.526.246-1.119.016-1.612.263-.246.772-.328 3.35-.164 4.73.148.099.247.017.346-.082.296-.312.575-.624.854-.936.97-1.15 1.94-2.3 2.91-3.433.395-.444.773-.871.674-1.545.658-.131 1.283-.016 1.908-.032.592-.017 1.2 0 1.793 0 .148.427.147.427.065 1.002-.18.18-.427.13-.657.13-.839 0-1.53.313-2.138.872-.296.279-.608.575-.888.886-.92 1.052-1.825 2.12-2.73 3.171-.081.099-.131.214-.23.345.132.164.231.313.346.444 1.776 1.89 3.568 3.779 5.36 5.667.41.428.822.822 1.545.707.083.427.1.755 0 1.133-.51.115-1.003-.065-1.512-.032-.494.033-.987.05-1.53.065-.542-.476-1.002-1.051-1.512-1.577-.493-.525-1.003-1.068-1.496-1.61a65 65 0 0 0-1.448-1.56c-.51-.526-.97-1.101-1.578-1.627-.066.132-.132.214-.132.296 0 1.347-.016 2.678.017 4.025.017.821.115.887.938.903.263 0 .526.017.789.033.016 0 .033.033.098.082.082.296.066.624 0 1.002-.115.017-.246.066-.361.05a39 39 0 0 0-5.196 0c-.115.016-.247-.017-.395-.033-.115-.361-.049-.69-.049-1.068.198-.016.346-.05.493-.066.23-.016.477 0 .708-.017.525-.032.641-.13.641-.672.016-1.413.016-2.842.016-4.255 0-.066-.066-.132-.082-.18a.3.3 0 0 0-.099-.018.13.13 0 0 0-.065.034c-.033.033-.083.066-.116.098-.049.05-.114.099-.164.164-1.841 1.988-3.7 3.959-5.54 5.947-.017.016-.05.016-.067.033h-2.927c-.148-.361-.148-.362-.082-1.035.05-.033.115-.099.18-.099.543.033.905-.246 1.234-.607 1.874-1.972 3.733-3.926 5.591-5.898.082-.098.147-.214.246-.329-.148-.18-.263-.344-.395-.509-.789-.92-1.561-1.856-2.367-2.76a17 17 0 0 0-1.217-1.232 2.92 2.92 0 0 0-1.94-.772c-.263-.017-.526.017-.789-.115-.033-.115-.065-.214-.065-.312v-.64c.147-.034.23-.1.328-.1zm46.152 0c.132.377.099.69.05 1.035-.297.164-.593.114-.872.13-.526.017-.97.182-1.365.527-.296.263-.609.509-.904.772a412 412 0 0 0-3.962 3.614c-.099.115-.198.23-.33.378.132.164.247.312.379.427 2.12 1.988 4.258 3.976 6.396 5.963.263.247.543.41.904.41.099 0 .213.034.328.05.099.362.05.69.05 1.068-.148.016-.28.066-.394.05-.806-.083-1.628-.115-2.434 0a.63.63 0 0 1-.575-.198c-.132-.131-.263-.246-.395-.378-1.858-1.741-3.7-3.499-5.557-5.257-.181-.18-.379-.345-.625-.558-.066.131-.131.214-.131.296l.049 4.566c0 .05.033.1.05.149.23.23.526.196.805.212.28.017.575-.048.855.083.115.345.115.674 0 1.051-.148.017-.297.066-.445.05a38 38 0 0 0-5.13 0h-.394c-.197-.361-.099-.723-.082-1.117.214-.017.379-.034.56-.05.262-.016.526-.016.788-.032.23-.017.395-.148.428-.395.033-.23.066-.476.066-.706.016-.985.016-1.955.016-2.924 0-2.202 0-4.42-.016-6.62 0-.428.016-.855-.181-1.265-.493-.296-1.085-.05-1.611-.247-.148-.345-.1-.674-.05-.97.098-.048.131-.097.18-.098 1.842 0 3.684-.016 5.525-.016.099 0 .198.033.329.05.131.328.132.656.033.968-.246.197-.51.165-.772.18-.214.017-.412.018-.625.05a.38.38 0 0 0-.313.312 1.6 1.6 0 0 0-.05.395 303 303 0 0 0-.032 3.86c0 .115.05.246.082.427.181-.131.313-.197.428-.295.493-.444.97-.904 1.43-1.364 1.02-1.019 2.022-2.07 3.025-3.105.592-.608.592-.608.724-1.396.033-.017.082-.066.132-.066.164-.016.312-.016.476-.016z"/></svg><svg viewBox="0 0 28 28" id="map" xmlns="http://www.w3.org/2000/svg"><path d="M24 12V7h-7l-6.988-2.999L4 7.083V21l6.012-2L14 20.712M10 4v15m7-12v5"/><path d="M20 14c-2.21 0-4 1.809-4 4.04 0 1.276.5 2.268 1.5 3.155.705.624 1.987 1.964 2.5 2.805.539-.824 1.795-2.18 2.5-2.805 1-.887 1.5-1.879 1.5-3.155 0-2.23-1.79-4.04-4-4.04ZM19.999 18h.009"/></svg><svg viewBox="0 0 32 32" id="map-btn" xmlns="http://www.w3.org/2000/svg"><path d="m11 4.002-7.5 4.11v18.555l7.5-2.666 9 4h8.5V8H20l-9-3.999ZM11 4v19.333m9-14.666v18.667"/></svg><svg viewBox="0 0 48 48" id="map-icon" xmlns="http://www.w3.org/2000/svg"><path d="M24 .014A20 20 0 0 0 9.876 34.17L24 47.986l14.142-13.832A20 20 0 0 0 24 .014ZM35.33 31.31 24 42.4 12.688 31.326a16 16 0 1 1 22.644-.016Zm-3.293-16.464-5-3.82a5.014 5.014 0 0 0-6.07 0l-5 3.82A5.026 5.026 0 0 0 14 18.818V28h20v-9.182a5.03 5.03 0 0 0-1.964-3.972ZM30 24h-4v-4h-4v4h-4v-5.182a1 1 0 0 1 .4-.8l5-3.818a1 1 0 0 1 1.216 0l5 3.82a1 1 0 0 1 .4.8L30 24Z"/></svg><svg viewBox="0 0 25 24" id="play" xmlns="http://www.w3.org/2000/svg"><path d="M21.976 12 5.5 21.414V2.585L21.976 12Z"/></svg><svg viewBox="0 0 24 24" id="square" xmlns="http://www.w3.org/2000/svg"><rect x="6" y="6" width="12" height="12" rx="1"/><circle cx="6" cy="6" r="2"/><circle cx="18" cy="6" r="2"/><circle cx="6" cy="18" r="2"/><circle cx="18" cy="18" r="2"/></svg><svg viewBox="0 0 40 40" id="tg" xmlns="http://www.w3.org/2000/svg"><rect width="40" height="40" rx="20"/><path fill-rule="evenodd" clip-rule="evenodd" d="M8.955 18.798c5.703-2.462 9.5-4.098 11.406-4.892 5.426-2.251 6.567-2.64 7.3-2.656.163 0 .521.032.766.227.195.162.244.372.277.534.032.162.065.502.032.762-.293 3.077-1.564 10.544-2.216 13.977-.277 1.458-.814 1.944-1.336 1.992-1.14.098-2.004-.745-3.096-1.457-1.727-1.118-2.688-1.814-4.367-2.916-1.939-1.263-.684-1.96.424-3.093.293-.292 5.296-4.827 5.394-5.232.016-.048.016-.243-.098-.34-.114-.097-.277-.065-.408-.032-.179.032-2.916 1.846-8.245 5.425-.782.535-1.482.794-2.118.778-.7-.016-2.037-.389-3.047-.713-1.222-.388-2.2-.599-2.118-1.28.049-.356.537-.712 1.45-1.084Z"/></svg><svg viewBox="0 0 40 40" id="vk" xmlns="http://www.w3.org/2000/svg"><rect width="40" height="40" rx="20"/><path d="M17.905 23.336V13.75h3.598v5.309c2.88-.354 4.699-3.687 5.249-5.309H30.5c-.45 3.392-3.424 5.997-4.948 6.784 2.55.81 5.698 4.719 5.698 6.93h-3.899c-1.44-3.774-4.498-4.915-5.848-5.013v5.014c-8.472.59-12.97-6.341-12.745-13.715h3.749c.225 6.931 3.823 8.996 5.398 9.586Z"/></svg><svg viewBox="0 0 40 40" id="whatsapp" xmlns="http://www.w3.org/2000/svg"><path fill-rule="evenodd" clip-rule="evenodd" d="M34.172 5.813C30.412 2.066 25.412.003 20.084 0 9.106 0 .17 8.891.166 19.82a19.713 19.713 0 0 0 2.658 9.909L0 40l10.558-2.756a19.977 19.977 0 0 0 9.518 2.412h.008c10.976 0 19.912-8.892 19.916-19.82.002-5.297-2.068-10.277-5.828-14.023Z"/><path fill-rule="evenodd" clip-rule="evenodd" d="M28.985 23.814c-.492-.238-2.911-1.392-3.362-1.552-.451-.159-.78-.238-1.107.24-.328.477-1.271 1.551-1.558 1.87-.287.318-.574.358-1.066.12-.493-.24-2.078-.743-3.958-2.369-1.463-1.265-2.45-2.827-2.737-3.304-.287-.478-.03-.736.216-.974.221-.214.492-.557.738-.836.246-.278.328-.477.492-.796.164-.318.082-.597-.041-.835-.123-.24-1.107-2.587-1.517-3.542-.4-.93-.805-.805-1.108-.82a20.245 20.245 0 0 0-.943-.016c-.328 0-.86.12-1.312.597-.45.478-1.722 1.632-1.722 3.98s1.763 4.616 2.01 4.934c.245.319 3.47 5.137 8.405 7.204 1.174.491 2.091.785 2.806 1.005 1.178.363 2.251.311 3.099.189.945-.137 2.911-1.155 3.321-2.269.41-1.114.41-2.07.287-2.268-.123-.2-.45-.319-.943-.558Z"/></svg></svg>